<mxfile host="app.diagrams.net" modified="2023-11-30T09:19:09.993Z" agent="Mozilla/5.0 (Windows NT 10.0; Win64; x64) AppleWebKit/537.36 (KHTML, like Gecko) Chrome/119.0.0.0 Safari/537.36" etag="BRrtwhiuS2gj6gtyQBTw" version="22.1.4" type="github">
  <diagram name="Page-1" id="xDy0eetTtX8t5qb-2rGi">
    <mxGraphModel dx="2314" dy="1266" grid="1" gridSize="10" guides="1" tooltips="1" connect="1" arrows="1" fold="1" page="1" pageScale="1" pageWidth="850" pageHeight="1100" math="0" shadow="0">
      <root>
        <mxCell id="0" />
        <mxCell id="1" parent="0" />
        <mxCell id="Tl-oxK__cK4v4PlNAEE8-28" value="" style="rounded=1;whiteSpace=wrap;html=1;" vertex="1" parent="1">
          <mxGeometry x="1060" y="70" width="1195.25" height="339" as="geometry" />
        </mxCell>
        <mxCell id="Tl-oxK__cK4v4PlNAEE8-21" value="" style="rounded=1;whiteSpace=wrap;html=1;" vertex="1" parent="1">
          <mxGeometry x="1815.25" y="111" width="370" height="268" as="geometry" />
        </mxCell>
        <mxCell id="Tl-oxK__cK4v4PlNAEE8-16" value="" style="rounded=1;whiteSpace=wrap;html=1;" vertex="1" parent="1">
          <mxGeometry x="1585.25" y="110" width="221.69" height="268" as="geometry" />
        </mxCell>
        <mxCell id="Mp6pbIfyjrRbvAWgAkd_-21" style="edgeStyle=orthogonalEdgeStyle;rounded=0;orthogonalLoop=1;jettySize=auto;html=1;entryX=0;entryY=0.5;entryDx=0;entryDy=0;" parent="1" source="Mp6pbIfyjrRbvAWgAkd_-15" target="Mp6pbIfyjrRbvAWgAkd_-18" edge="1">
          <mxGeometry relative="1" as="geometry" />
        </mxCell>
        <mxCell id="Mp6pbIfyjrRbvAWgAkd_-15" value="Developer&lt;br&gt;" style="points=[[0.35,0,0],[0.98,0.51,0],[1,0.71,0],[0.67,1,0],[0,0.795,0],[0,0.65,0]];verticalLabelPosition=bottom;sketch=0;html=1;verticalAlign=top;aspect=fixed;align=center;pointerEvents=1;shape=mxgraph.cisco19.user;fillColor=#005073;strokeColor=none;" parent="1" vertex="1">
          <mxGeometry x="90" y="200" width="50" height="50" as="geometry" />
        </mxCell>
        <mxCell id="Mp6pbIfyjrRbvAWgAkd_-18" value="" style="rounded=1;whiteSpace=wrap;html=1;" parent="1" vertex="1">
          <mxGeometry x="200" y="120" width="760" height="210" as="geometry" />
        </mxCell>
        <mxCell id="Mp6pbIfyjrRbvAWgAkd_-31" style="edgeStyle=orthogonalEdgeStyle;rounded=0;orthogonalLoop=1;jettySize=auto;html=1;" parent="1" source="Mp6pbIfyjrRbvAWgAkd_-25" target="Mp6pbIfyjrRbvAWgAkd_-30" edge="1">
          <mxGeometry relative="1" as="geometry" />
        </mxCell>
        <mxCell id="Mp6pbIfyjrRbvAWgAkd_-25" value="Feature Branch&lt;br&gt;" style="sketch=0;outlineConnect=0;fontColor=#232F3E;gradientColor=none;fillColor=#232F3D;strokeColor=none;dashed=0;verticalLabelPosition=bottom;verticalAlign=top;align=center;html=1;fontSize=12;fontStyle=0;aspect=fixed;pointerEvents=1;shape=mxgraph.aws4.source_code;" parent="1" vertex="1">
          <mxGeometry x="214.75" y="171.31" width="71.15" height="97.37" as="geometry" />
        </mxCell>
        <mxCell id="Mp6pbIfyjrRbvAWgAkd_-33" style="edgeStyle=orthogonalEdgeStyle;rounded=0;orthogonalLoop=1;jettySize=auto;html=1;" parent="1" source="Mp6pbIfyjrRbvAWgAkd_-30" target="Mp6pbIfyjrRbvAWgAkd_-32" edge="1">
          <mxGeometry relative="1" as="geometry" />
        </mxCell>
        <mxCell id="Mp6pbIfyjrRbvAWgAkd_-35" style="edgeStyle=orthogonalEdgeStyle;rounded=0;orthogonalLoop=1;jettySize=auto;html=1;entryX=0.5;entryY=0;entryDx=0;entryDy=0;" parent="1" source="Mp6pbIfyjrRbvAWgAkd_-30" target="Mp6pbIfyjrRbvAWgAkd_-34" edge="1">
          <mxGeometry relative="1" as="geometry">
            <Array as="points">
              <mxPoint x="349" y="370" />
              <mxPoint x="502" y="370" />
            </Array>
          </mxGeometry>
        </mxCell>
        <mxCell id="Mp6pbIfyjrRbvAWgAkd_-105" value="Trigger" style="edgeLabel;html=1;align=center;verticalAlign=middle;resizable=0;points=[];" parent="Mp6pbIfyjrRbvAWgAkd_-35" vertex="1" connectable="0">
          <mxGeometry x="0.1758" y="3" relative="1" as="geometry">
            <mxPoint as="offset" />
          </mxGeometry>
        </mxCell>
        <mxCell id="Mp6pbIfyjrRbvAWgAkd_-30" value="Pull Request&lt;br&gt;" style="shape=image;html=1;verticalAlign=top;verticalLabelPosition=bottom;labelBackgroundColor=#ffffff;imageAspect=0;aspect=fixed;image=https://cdn1.iconfinder.com/data/icons/ionicons-fill-vol-1/512/git-pull-request-128.png" parent="1" vertex="1">
          <mxGeometry x="330" y="201.5" width="37" height="37" as="geometry" />
        </mxCell>
        <mxCell id="Mp6pbIfyjrRbvAWgAkd_-32" value="Review&lt;br&gt;" style="shape=image;html=1;verticalAlign=top;verticalLabelPosition=bottom;labelBackgroundColor=#ffffff;imageAspect=0;aspect=fixed;image=https://cdn3.iconfinder.com/data/icons/marketing-outline-13/64/Review-128.png" parent="1" vertex="1">
          <mxGeometry x="425" y="188" width="64" height="64" as="geometry" />
        </mxCell>
        <mxCell id="Mp6pbIfyjrRbvAWgAkd_-81" style="edgeStyle=orthogonalEdgeStyle;rounded=0;orthogonalLoop=1;jettySize=auto;html=1;" parent="1" source="Mp6pbIfyjrRbvAWgAkd_-34" target="Mp6pbIfyjrRbvAWgAkd_-77" edge="1">
          <mxGeometry relative="1" as="geometry">
            <Array as="points">
              <mxPoint x="880" y="568" />
              <mxPoint x="880" y="390" />
              <mxPoint x="580" y="390" />
            </Array>
          </mxGeometry>
        </mxCell>
        <mxCell id="Mp6pbIfyjrRbvAWgAkd_-106" value="Result" style="edgeLabel;html=1;align=center;verticalAlign=middle;resizable=0;points=[];" parent="Mp6pbIfyjrRbvAWgAkd_-81" vertex="1" connectable="0">
          <mxGeometry x="0.0663" y="-1" relative="1" as="geometry">
            <mxPoint as="offset" />
          </mxGeometry>
        </mxCell>
        <mxCell id="Mp6pbIfyjrRbvAWgAkd_-34" value="" style="rounded=1;whiteSpace=wrap;html=1;" parent="1" vertex="1">
          <mxGeometry x="200" y="410" width="604.75" height="315" as="geometry" />
        </mxCell>
        <mxCell id="Mp6pbIfyjrRbvAWgAkd_-36" value="Integration" style="image;sketch=0;aspect=fixed;html=1;points=[];align=center;fontSize=12;image=img/lib/mscae/Azure_Pipelines.svg;" parent="1" vertex="1">
          <mxGeometry x="744.75" y="435" width="40" height="40" as="geometry" />
        </mxCell>
        <mxCell id="Mp6pbIfyjrRbvAWgAkd_-54" value="" style="rounded=1;whiteSpace=wrap;html=1;" parent="1" vertex="1">
          <mxGeometry x="214.75" y="435" width="60" height="270" as="geometry" />
        </mxCell>
        <mxCell id="Mp6pbIfyjrRbvAWgAkd_-56" value="Build" style="editableCssRules=.*;html=1;shape=image;verticalLabelPosition=bottom;labelBackgroundColor=#ffffff;verticalAlign=top;aspect=fixed;imageAspect=0;image=data:image/svg+xml,PHN2ZyB4bWxucz0iaHR0cDovL3d3dy53My5vcmcvMjAwMC9zdmciIHhtbG5zOnY9Imh0dHBzOi8vdmVjdGEuaW8vbmFubyIgd2lkdGg9IjE3LjMyOTk5OTkyMzcwNjA1NSIgaGVpZ2h0PSIxOS42MTAwMDA2MTAzNTE1NjIiIHZpZXdCb3g9IjAgMCAxNy4zMjk5OTk5MjM3MDYwNTUgMTkuNjEwMDAwNjEwMzUxNTYyIj4mI3hhOwk8c3R5bGUgdHlwZT0idGV4dC9jc3MiPiYjeGE7CS5zdDB7ZmlsbDojNDI4NWY0O30mI3hhOwkuc3Qxe2ZpbGw6IzY2OWRmNjt9JiN4YTsJLnN0MntmaWxsOiNhZWNiZmE7fSYjeGE7CTwvc3R5bGU+JiN4YTsJPHBhdGggY2xhc3M9InN0MCIgZD0iTTEyLjE4IDcuOThMMTEgNy4yOWwtMy41MiA2LjEgMS4xOC42OCAzLjUyLTIuMDN6IiBmaWxsPSIjNDI4NWY0Ii8+JiN4YTsJPHBhdGggY2xhc3M9InN0MSIgZD0iTTYuMzIgMTIuNzJsMy41My02LjA5LTEuMTktLjY5LTMuNTIgMi4wNHY0LjA2eiIgZmlsbD0iIzY2OWRmNiIvPiYjeGE7CTxwYXRoIGNsYXNzPSJzdDIiIGQ9Ik0zLjc1IDcuOThMMCA1LjgxdjkuMmw3Ljk3IDQuNnYtNC4zM2wtNC4yMi0yLjQ0em05LjEzLTEuMmwzLjc2LTIuMTdMOC42NiAwIC42OCA0LjYxbDMuNzYgMi4xNyA0LjIyLTIuNDR6TTkuMzUgMTkuNjFsNy45OC00LjZ2LTkuMmwtMy43NiAyLjE3djQuODZsLTQuMjIgMi40NHoiIGZpbGw9IiNhZWNiZmEiLz4mI3hhOzwvc3ZnPg==;" parent="1" vertex="1">
          <mxGeometry x="224.75" y="525" width="34" height="40" as="geometry" />
        </mxCell>
        <mxCell id="Mp6pbIfyjrRbvAWgAkd_-57" value="" style="rounded=1;whiteSpace=wrap;html=1;" parent="1" vertex="1">
          <mxGeometry x="284.75" y="435" width="100" height="270" as="geometry" />
        </mxCell>
        <mxCell id="Mp6pbIfyjrRbvAWgAkd_-58" value="unit test&lt;br&gt;" style="image;aspect=fixed;html=1;points=[];align=center;fontSize=12;image=img/lib/azure2/general/Web_Test.svg;" parent="1" vertex="1">
          <mxGeometry x="313.5" y="475" width="41" height="41" as="geometry" />
        </mxCell>
        <mxCell id="Mp6pbIfyjrRbvAWgAkd_-59" value="Component Test&lt;br&gt;" style="image;aspect=fixed;html=1;points=[];align=center;fontSize=12;image=img/lib/azure2/other/Test_Base.svg;" parent="1" vertex="1">
          <mxGeometry x="313.5" y="570" width="42.5" height="30" as="geometry" />
        </mxCell>
        <mxCell id="Mp6pbIfyjrRbvAWgAkd_-60" value="" style="rounded=1;whiteSpace=wrap;html=1;" parent="1" vertex="1">
          <mxGeometry x="391.75" y="435" width="93" height="270" as="geometry" />
        </mxCell>
        <mxCell id="Mp6pbIfyjrRbvAWgAkd_-61" value="Code Coverage&lt;br&gt;" style="shape=image;html=1;verticalAlign=top;verticalLabelPosition=bottom;labelBackgroundColor=#ffffff;imageAspect=0;aspect=fixed;image=https://cdn4.iconfinder.com/data/icons/internet-networking-and-communication-glyph-24/24/Coverage_level_signal_bars_signal_strength_wireless_connectivity_wireless_internet-128.png" parent="1" vertex="1">
          <mxGeometry x="414.37" y="515" width="50" height="50" as="geometry" />
        </mxCell>
        <mxCell id="Mp6pbIfyjrRbvAWgAkd_-64" value="" style="rounded=1;whiteSpace=wrap;html=1;" parent="1" vertex="1">
          <mxGeometry x="489.75" y="435" width="105" height="270" as="geometry" />
        </mxCell>
        <mxCell id="Mp6pbIfyjrRbvAWgAkd_-65" value="Sonar cube" style="sketch=0;points=[[0.015,0.015,0],[0.985,0.015,0],[0.985,0.985,0],[0.015,0.985,0],[0.25,0,0],[0.5,0,0],[0.75,0,0],[1,0.25,0],[1,0.5,0],[1,0.75,0],[0.75,1,0],[0.5,1,0],[0.25,1,0],[0,0.75,0],[0,0.5,0],[0,0.25,0]];verticalLabelPosition=bottom;html=1;verticalAlign=top;aspect=fixed;align=center;pointerEvents=1;shape=mxgraph.cisco19.rect;prIcon=anomaly_detection;fillColor=#FAFAFA;strokeColor=#005073;" parent="1" vertex="1">
          <mxGeometry x="514.75" y="438.5" width="50" height="50" as="geometry" />
        </mxCell>
        <mxCell id="Mp6pbIfyjrRbvAWgAkd_-66" value="Nexus Scan" style="shape=image;html=1;verticalAlign=top;verticalLabelPosition=bottom;labelBackgroundColor=#ffffff;imageAspect=0;aspect=fixed;image=https://cdn1.iconfinder.com/data/icons/seo-and-web-development-6/32/development_listing_search_magnifier_magnifying_glass_loupe-128.png" parent="1" vertex="1">
          <mxGeometry x="514.75" y="528.5" width="50" height="50" as="geometry" />
        </mxCell>
        <mxCell id="Mp6pbIfyjrRbvAWgAkd_-67" value="Vera Code&amp;nbsp;&lt;br&gt;Scan" style="fillColor=#28A8E0;verticalLabelPosition=bottom;sketch=0;html=1;strokeColor=#ffffff;verticalAlign=top;align=center;points=[[0.145,0.145,0],[0.5,0,0],[0.855,0.145,0],[1,0.5,0],[0.855,0.855,0],[0.5,1,0],[0.145,0.855,0],[0,0.5,0]];pointerEvents=1;shape=mxgraph.cisco_safe.compositeIcon;bgIcon=ellipse;resIcon=mxgraph.cisco_safe.capability.anomaly_detection;" parent="1" vertex="1">
          <mxGeometry x="518.25" y="618.5" width="43" height="43" as="geometry" />
        </mxCell>
        <mxCell id="Mp6pbIfyjrRbvAWgAkd_-68" value="" style="rounded=1;whiteSpace=wrap;html=1;" parent="1" vertex="1">
          <mxGeometry x="604.75" y="435" width="90" height="270" as="geometry" />
        </mxCell>
        <mxCell id="Mp6pbIfyjrRbvAWgAkd_-69" value="Report&amp;nbsp;&lt;br&gt;Publish" style="shape=image;html=1;verticalAlign=top;verticalLabelPosition=bottom;labelBackgroundColor=#ffffff;imageAspect=0;aspect=fixed;image=https://cdn3.iconfinder.com/data/icons/software-engineering-and-video-gaming/512/602_Launch_mission_shuttle_startup_publish-128.png" parent="1" vertex="1">
          <mxGeometry x="620.25" y="520.5" width="59" height="59" as="geometry" />
        </mxCell>
        <mxCell id="Mp6pbIfyjrRbvAWgAkd_-76" value="Master Branch&lt;br&gt;" style="sketch=0;outlineConnect=0;fontColor=#232F3E;gradientColor=none;fillColor=#232F3D;strokeColor=none;dashed=0;verticalLabelPosition=bottom;verticalAlign=top;align=center;html=1;fontSize=12;fontStyle=0;aspect=fixed;pointerEvents=1;shape=mxgraph.aws4.source_code;" parent="1" vertex="1">
          <mxGeometry x="784.75" y="167.63" width="66.32" height="90.75" as="geometry" />
        </mxCell>
        <mxCell id="Tl-oxK__cK4v4PlNAEE8-4" style="edgeStyle=orthogonalEdgeStyle;rounded=0;orthogonalLoop=1;jettySize=auto;html=1;" edge="1" parent="1" source="Mp6pbIfyjrRbvAWgAkd_-77" target="Tl-oxK__cK4v4PlNAEE8-1">
          <mxGeometry relative="1" as="geometry" />
        </mxCell>
        <mxCell id="Mp6pbIfyjrRbvAWgAkd_-77" value="Merge Check List" style="shape=image;html=1;verticalAlign=top;verticalLabelPosition=bottom;labelBackgroundColor=#ffffff;imageAspect=0;aspect=fixed;image=https://cdn0.iconfinder.com/data/icons/phosphor-thin-vol-3/256/list-checks-thin-128.png" parent="1" vertex="1">
          <mxGeometry x="544.75" y="183" width="60" height="60" as="geometry" />
        </mxCell>
        <mxCell id="Mp6pbIfyjrRbvAWgAkd_-78" style="edgeStyle=orthogonalEdgeStyle;rounded=0;orthogonalLoop=1;jettySize=auto;html=1;entryX=0.025;entryY=0.604;entryDx=0;entryDy=0;entryPerimeter=0;" parent="1" source="Mp6pbIfyjrRbvAWgAkd_-32" target="Mp6pbIfyjrRbvAWgAkd_-77" edge="1">
          <mxGeometry relative="1" as="geometry" />
        </mxCell>
        <mxCell id="Mp6pbIfyjrRbvAWgAkd_-107" value="Result" style="edgeLabel;html=1;align=center;verticalAlign=middle;resizable=0;points=[];" parent="Mp6pbIfyjrRbvAWgAkd_-78" vertex="1" connectable="0">
          <mxGeometry x="-0.3991" y="-1" relative="1" as="geometry">
            <mxPoint as="offset" />
          </mxGeometry>
        </mxCell>
        <mxCell id="Mp6pbIfyjrRbvAWgAkd_-83" value="Github&lt;br&gt;" style="dashed=0;outlineConnect=0;html=1;align=center;labelPosition=center;verticalLabelPosition=bottom;verticalAlign=top;shape=mxgraph.weblogos.github" parent="1" vertex="1">
          <mxGeometry x="900" y="133" width="50" height="50" as="geometry" />
        </mxCell>
        <mxCell id="Mp6pbIfyjrRbvAWgAkd_-88" value="Integration" style="image;sketch=0;aspect=fixed;html=1;points=[];align=center;fontSize=12;image=img/lib/mscae/Azure_Pipelines.svg;" parent="1" vertex="1">
          <mxGeometry x="2197.94" y="110" width="40" height="40" as="geometry" />
        </mxCell>
        <mxCell id="Mp6pbIfyjrRbvAWgAkd_-89" value="" style="rounded=1;whiteSpace=wrap;html=1;" parent="1" vertex="1">
          <mxGeometry x="1090" y="111" width="60" height="270" as="geometry" />
        </mxCell>
        <mxCell id="Mp6pbIfyjrRbvAWgAkd_-90" value="Build" style="editableCssRules=.*;html=1;shape=image;verticalLabelPosition=bottom;labelBackgroundColor=#ffffff;verticalAlign=top;aspect=fixed;imageAspect=0;image=data:image/svg+xml,PHN2ZyB4bWxucz0iaHR0cDovL3d3dy53My5vcmcvMjAwMC9zdmciIHhtbG5zOnY9Imh0dHBzOi8vdmVjdGEuaW8vbmFubyIgd2lkdGg9IjE3LjMyOTk5OTkyMzcwNjA1NSIgaGVpZ2h0PSIxOS42MTAwMDA2MTAzNTE1NjIiIHZpZXdCb3g9IjAgMCAxNy4zMjk5OTk5MjM3MDYwNTUgMTkuNjEwMDAwNjEwMzUxNTYyIj4mI3hhOwk8c3R5bGUgdHlwZT0idGV4dC9jc3MiPiYjeGE7CS5zdDB7ZmlsbDojNDI4NWY0O30mI3hhOwkuc3Qxe2ZpbGw6IzY2OWRmNjt9JiN4YTsJLnN0MntmaWxsOiNhZWNiZmE7fSYjeGE7CTwvc3R5bGU+JiN4YTsJPHBhdGggY2xhc3M9InN0MCIgZD0iTTEyLjE4IDcuOThMMTEgNy4yOWwtMy41MiA2LjEgMS4xOC42OCAzLjUyLTIuMDN6IiBmaWxsPSIjNDI4NWY0Ii8+JiN4YTsJPHBhdGggY2xhc3M9InN0MSIgZD0iTTYuMzIgMTIuNzJsMy41My02LjA5LTEuMTktLjY5LTMuNTIgMi4wNHY0LjA2eiIgZmlsbD0iIzY2OWRmNiIvPiYjeGE7CTxwYXRoIGNsYXNzPSJzdDIiIGQ9Ik0zLjc1IDcuOThMMCA1LjgxdjkuMmw3Ljk3IDQuNnYtNC4zM2wtNC4yMi0yLjQ0em05LjEzLTEuMmwzLjc2LTIuMTdMOC42NiAwIC42OCA0LjYxbDMuNzYgMi4xNyA0LjIyLTIuNDR6TTkuMzUgMTkuNjFsNy45OC00LjZ2LTkuMmwtMy43NiAyLjE3djQuODZsLTQuMjIgMi40NHoiIGZpbGw9IiNhZWNiZmEiLz4mI3hhOzwvc3ZnPg==;" parent="1" vertex="1">
          <mxGeometry x="1100" y="201" width="34" height="40" as="geometry" />
        </mxCell>
        <mxCell id="Mp6pbIfyjrRbvAWgAkd_-91" value="" style="rounded=1;whiteSpace=wrap;html=1;" parent="1" vertex="1">
          <mxGeometry x="1160" y="111" width="100" height="270" as="geometry" />
        </mxCell>
        <mxCell id="Mp6pbIfyjrRbvAWgAkd_-92" value="unit test&lt;br&gt;" style="image;aspect=fixed;html=1;points=[];align=center;fontSize=12;image=img/lib/azure2/general/Web_Test.svg;" parent="1" vertex="1">
          <mxGeometry x="1188.75" y="151" width="41" height="41" as="geometry" />
        </mxCell>
        <mxCell id="Mp6pbIfyjrRbvAWgAkd_-93" value="Component Test&lt;br&gt;" style="image;aspect=fixed;html=1;points=[];align=center;fontSize=12;image=img/lib/azure2/other/Test_Base.svg;" parent="1" vertex="1">
          <mxGeometry x="1188.75" y="246" width="42.5" height="30" as="geometry" />
        </mxCell>
        <mxCell id="Mp6pbIfyjrRbvAWgAkd_-94" value="" style="rounded=1;whiteSpace=wrap;html=1;" parent="1" vertex="1">
          <mxGeometry x="1267" y="111" width="93" height="270" as="geometry" />
        </mxCell>
        <mxCell id="Mp6pbIfyjrRbvAWgAkd_-95" value="Code Coverage&lt;br&gt;" style="shape=image;html=1;verticalAlign=top;verticalLabelPosition=bottom;labelBackgroundColor=#ffffff;imageAspect=0;aspect=fixed;image=https://cdn4.iconfinder.com/data/icons/internet-networking-and-communication-glyph-24/24/Coverage_level_signal_bars_signal_strength_wireless_connectivity_wireless_internet-128.png" parent="1" vertex="1">
          <mxGeometry x="1289.62" y="191" width="50" height="50" as="geometry" />
        </mxCell>
        <mxCell id="Mp6pbIfyjrRbvAWgAkd_-96" value="" style="rounded=1;whiteSpace=wrap;html=1;" parent="1" vertex="1">
          <mxGeometry x="1365" y="111" width="105" height="270" as="geometry" />
        </mxCell>
        <mxCell id="Mp6pbIfyjrRbvAWgAkd_-97" value="Sonar cube" style="sketch=0;points=[[0.015,0.015,0],[0.985,0.015,0],[0.985,0.985,0],[0.015,0.985,0],[0.25,0,0],[0.5,0,0],[0.75,0,0],[1,0.25,0],[1,0.5,0],[1,0.75,0],[0.75,1,0],[0.5,1,0],[0.25,1,0],[0,0.75,0],[0,0.5,0],[0,0.25,0]];verticalLabelPosition=bottom;html=1;verticalAlign=top;aspect=fixed;align=center;pointerEvents=1;shape=mxgraph.cisco19.rect;prIcon=anomaly_detection;fillColor=#FAFAFA;strokeColor=#005073;" parent="1" vertex="1">
          <mxGeometry x="1390" y="130" width="50" height="50" as="geometry" />
        </mxCell>
        <mxCell id="Mp6pbIfyjrRbvAWgAkd_-98" value="Nexus Scan" style="shape=image;html=1;verticalAlign=top;verticalLabelPosition=bottom;labelBackgroundColor=#ffffff;imageAspect=0;aspect=fixed;image=https://cdn1.iconfinder.com/data/icons/seo-and-web-development-6/32/development_listing_search_magnifier_magnifying_glass_loupe-128.png" parent="1" vertex="1">
          <mxGeometry x="1390" y="211.5" width="50" height="50" as="geometry" />
        </mxCell>
        <mxCell id="Mp6pbIfyjrRbvAWgAkd_-99" value="Vera Code&amp;nbsp;&lt;br&gt;Scan" style="fillColor=#28A8E0;verticalLabelPosition=bottom;sketch=0;html=1;strokeColor=#ffffff;verticalAlign=top;align=center;points=[[0.145,0.145,0],[0.5,0,0],[0.855,0.145,0],[1,0.5,0],[0.855,0.855,0],[0.5,1,0],[0.145,0.855,0],[0,0.5,0]];pointerEvents=1;shape=mxgraph.cisco_safe.compositeIcon;bgIcon=ellipse;resIcon=mxgraph.cisco_safe.capability.anomaly_detection;" parent="1" vertex="1">
          <mxGeometry x="1393.5" y="294.5" width="43" height="43" as="geometry" />
        </mxCell>
        <mxCell id="Mp6pbIfyjrRbvAWgAkd_-100" value="" style="rounded=1;whiteSpace=wrap;html=1;" parent="1" vertex="1">
          <mxGeometry x="1480" y="111" width="90" height="270" as="geometry" />
        </mxCell>
        <mxCell id="Mp6pbIfyjrRbvAWgAkd_-101" value="Report&amp;nbsp;&lt;br&gt;Publish" style="shape=image;html=1;verticalAlign=top;verticalLabelPosition=bottom;labelBackgroundColor=#ffffff;imageAspect=0;aspect=fixed;image=https://cdn3.iconfinder.com/data/icons/software-engineering-and-video-gaming/512/602_Launch_mission_shuttle_startup_publish-128.png" parent="1" vertex="1">
          <mxGeometry x="1495.5" y="196.5" width="59" height="59" as="geometry" />
        </mxCell>
        <mxCell id="Tl-oxK__cK4v4PlNAEE8-15" style="edgeStyle=orthogonalEdgeStyle;rounded=0;orthogonalLoop=1;jettySize=auto;html=1;entryX=0;entryY=0.5;entryDx=0;entryDy=0;" edge="1" parent="1" source="Mp6pbIfyjrRbvAWgAkd_-109" target="Mp6pbIfyjrRbvAWgAkd_-115">
          <mxGeometry relative="1" as="geometry" />
        </mxCell>
        <mxCell id="Mp6pbIfyjrRbvAWgAkd_-109" value="" style="shape=image;html=1;verticalAlign=top;verticalLabelPosition=bottom;labelBackgroundColor=#ffffff;imageAspect=0;aspect=fixed;image=https://cdn1.iconfinder.com/data/icons/bootstrap-vol-3/16/filetype-yml-128.png" parent="1" vertex="1">
          <mxGeometry x="1595.25" y="219" width="54" height="54" as="geometry" />
        </mxCell>
        <mxCell id="Mp6pbIfyjrRbvAWgAkd_-112" value="" style="rounded=1;whiteSpace=wrap;html=1;" parent="1" vertex="1">
          <mxGeometry x="1825.25" y="127" width="300" height="114" as="geometry" />
        </mxCell>
        <mxCell id="Mp6pbIfyjrRbvAWgAkd_-115" value="" style="rhombus;whiteSpace=wrap;html=1;" parent="1" vertex="1">
          <mxGeometry x="1695.25" y="192" width="100" height="107" as="geometry" />
        </mxCell>
        <mxCell id="Mp6pbIfyjrRbvAWgAkd_-116" value="" style="sketch=0;pointerEvents=1;shadow=0;dashed=0;html=1;strokeColor=none;fillColor=#505050;labelPosition=center;verticalLabelPosition=bottom;verticalAlign=top;outlineConnect=0;align=center;shape=mxgraph.office.concepts.settings_office_365;" parent="1" vertex="1">
          <mxGeometry x="1721.25" y="223.5" width="48" height="48" as="geometry" />
        </mxCell>
        <mxCell id="Mp6pbIfyjrRbvAWgAkd_-150" style="edgeStyle=orthogonalEdgeStyle;rounded=0;orthogonalLoop=1;jettySize=auto;html=1;entryX=1;entryY=0.5;entryDx=0;entryDy=0;" parent="1" source="Mp6pbIfyjrRbvAWgAkd_-119" target="Mp6pbIfyjrRbvAWgAkd_-137" edge="1">
          <mxGeometry relative="1" as="geometry">
            <Array as="points">
              <mxPoint x="2325.25" y="302.5" />
              <mxPoint x="2325.25" y="570.5" />
            </Array>
          </mxGeometry>
        </mxCell>
        <mxCell id="Mp6pbIfyjrRbvAWgAkd_-119" value="" style="rounded=1;whiteSpace=wrap;html=1;" parent="1" vertex="1">
          <mxGeometry x="1825.25" y="246" width="300" height="114" as="geometry" />
        </mxCell>
        <mxCell id="Mp6pbIfyjrRbvAWgAkd_-128" value="Executable File&amp;nbsp;&lt;br&gt;Builder" style="shape=image;html=1;verticalAlign=top;verticalLabelPosition=bottom;labelBackgroundColor=#ffffff;imageAspect=0;aspect=fixed;image=https://cdn2.iconfinder.com/data/icons/whcompare-servers-web-hosting/50/website-builder-128.png" parent="1" vertex="1">
          <mxGeometry x="1958.98" y="142.5" width="62" height="62" as="geometry" />
        </mxCell>
        <mxCell id="Mp6pbIfyjrRbvAWgAkd_-129" value="Executable &lt;br&gt;File&amp;nbsp;" style="sketch=0;pointerEvents=1;shadow=0;dashed=0;html=1;strokeColor=none;fillColor=#505050;labelPosition=center;verticalLabelPosition=bottom;verticalAlign=top;outlineConnect=0;align=center;shape=mxgraph.office.concepts.application_windows;" parent="1" vertex="1">
          <mxGeometry x="2045.25" y="149" width="59" height="47" as="geometry" />
        </mxCell>
        <mxCell id="Mp6pbIfyjrRbvAWgAkd_-132" value="harbor&amp;nbsp;&lt;br&gt;repository" style="image;aspect=fixed;html=1;points=[];align=center;fontSize=12;image=img/lib/azure2/management_governance/Azure_Lighthouse.svg;" parent="1" vertex="1">
          <mxGeometry x="2020.98" y="262" width="49.46" height="57" as="geometry" />
        </mxCell>
        <mxCell id="Mp6pbIfyjrRbvAWgAkd_-137" value="" style="rounded=1;whiteSpace=wrap;html=1;" parent="1" vertex="1">
          <mxGeometry x="1635.25" y="480.5" width="670" height="180" as="geometry" />
        </mxCell>
        <mxCell id="Mp6pbIfyjrRbvAWgAkd_-139" value="Continuous Delivery" style="shape=image;verticalLabelPosition=bottom;labelBackgroundColor=default;verticalAlign=top;aspect=fixed;imageAspect=0;image=data:image/png,iVBORw0KGgoAAAANSUhEUgAAATEAAAByCAYAAAA73uYeAAAeR0lEQVR4Ae2dz68lx1XH318QjTILkAZlMQjJgQSQR0pGA0yMITABY4ElJ5GQkyyQggVCHgRRDFJWw4+Fs0AsLBZ4l2SRbIhYZINXSDYLsLyJDBKwcCQjEYcoKImIZ3zR57x7OvXqVlWfqurq2/f5tNTqvn27q6pPd33u95w63fds55NbwC3gFjhhC5ydcNu96W4Bt4BbYOcQ85vALeAWOGkLOMRO+vJ5490CbgGHmN8DbgG3wElbwCF20pfPG+8WcAs4xPwecAu4BU7aAg6xk7583ni3gFvAIeb3gFvALXDSFnCInfTl88a7BdwCDjG/B9wCboGTtoBD7KQvnzfeLeAWcIj5PeAWcAuctAUcYid9+bzxbgG3wGYh9uDbb+7e+uLzu7f/+FMy3//c07v7L73oV2zDFrh//63d11/9p91f/+Uf7f7k95+4MP/VX/zh7hv/+W8bbr037VQtsEmI3X/t1d3bH72529042+1uXT2fb16Rz2899+zuwfe/e6r2vrTt/u//+sbuzz77yd0H33O2+/mfONvdfujizDa++9Lffn7Hvj65BZaywOYgJmrrkfecg4tlPN8426HKHGRL3QL95aDAUF4/d/1s98s/W54BGbDzyS2wlAU2BbH7r7x8Dq/b1w7hFcLsxpm4mA6ypW6DvnL+8cW/NwFMAQfI/tlDA31G96MnC2wGYgDswWPv3e3mAKYwc0U2XcRjr/zBJ39J3EeF1NwS19LV2LGv2uWpfxMQIwYmbiPxL4WUZemK7Oh3Iq7kb93+kd2jP112I0Owse/HP3xtx7E+uQV6LXB0iAEwUWC1AFPIuSLrvQe6jgdEQKkGYr/4vjMBn0Osy/R+8N4CR4XYFANrBVgAMlIxPEa2/n3dAjGA92sfOGtWYsTgSNnQmZQOXWf00++D9e+DY9Z4NIhNMbBegAUgu3/vbnPHOOZFOOW6gRjuJOoqdBlL673upKZypNI4gKOncJzyHVXf9qNB7K0vv3CeB6YQWmLprmX9HbDAEbWBfeDTE9invkd+6hCawPFjH77uEFvgmp5SEUeDGEYiI18SWq0jkhbQOchWv/++9tUvVaVYkE+GS9g6ferx9yWVn8baXIm1WvY0jzsqxDDZ/73w+TEgu3fXYyMr3ZO4lJ/99G9Ipn7JjeQ70it+9+MfbHb7//3r/yLxtNRAgiuxlS74xqpZDWIP/uNfszeuK7KN3RUNzUH94OaRyIq7iCoCKsysA68bP3omsOtRSiXV5xBruHCX4JBVICajkLev7b7//J9nTSYg4/lIdy2zNtr6FygyIEO8C5ePIDsz62zDhWSf1oljebwJSKYUn7uTrZY97eOGQwwFNiWy3jibBxkPfVtiX9Z9iJH5qOXqdylqi7dWMPcor7DhlKMKLwUxV2Khtd4560Mhlkxk3YMs94s8xciskLLs58H+S3FHo+ZyKgyoOcQuxWWuPolhEFMXUl6lE4NmRpFNIHPXsvqCXtYDcEWJq6UUmG5zd/KyXv3yeQ2BmOlZyBtn5yOTmfZNwX7cy3DuAduNs52/jyxj8A1v5o0XqrQUWKmlK7ENX8SBTVscYiaAqTKbUWSoOd4vRpmskyArz1kyAKBl1C49Rjbwdlq2aB4f4jEi8spQWSlwhdvY5xjJrrST8Aj36Q/+4e+mmXuXNxTnQict1qIuy5wq+8Ebr+/e+uoXpB8hEuhPtHfpNqbqxgbExy/Uv28D26SvY8OGgZ9FIVYFMIXPDMhig8gN87mnd7tekPG66waDxe3xz8tZgOvBQACuI/B65KHz1IwQVJZ18tAsM6OmrUm3AAEAMGj0nadu77756w/J/Oad67t4/ubj79999+nHBBrSRzpMRn3/8ys/JnVQJ3XpUtf5Xuuhv9BO2qjt0raGx9E+AdqCb03megInshKwQar+sA2sT3ZCwBj752IQawJYBDJro9nve595qh9kJ5gQy01JR8fFItBNygH5WZ/+2C9cmNnGTBIqD0fTWXW0sGVJveHEu/Q/+fjDF+qM21D6/Ke/95sHNynnAqRQXsy4hxZoxfugyHgsaW4mb42UkJpJ1MRzz05QkE74xMO7N2dm7cTsz72ryqOmbvYVIACvQn3UJXmZr726+94zTwr0pP6ZY4AMEFnivyzgAeepYC21N/zugp2eeVKUG0qxNC0CMRrc9Tod4lw3rxTTL+KT4MSqXqKowAyXJxQjI73gK1/4GwETAW6SSuc6Kd/ToRnRY3+OQ93UzhxL3eEERH/m3bY2xO2kPan3iQHF0uhjDKvez5yXFWL8cP7ga1/5oepCWRSgUPqOjopakvjsTAcNbc66BWLUjbsoCrGynQoRzrV14lhgbQV8zlZqJ0Bcmroh1g0whcqtq/IrUGps/B3v2u9yK6l74+kXwAvXCgChTtbs5AoJ6o4hxutv2K771CxRWCmIodwAXk1ZPftWQeze3XNVUQmFXAdlO50c0IgXE9/cmc9WiAmMGiFL2wSyPNtcOQEwcXc76g5txnmgDktTF8SQrF0KTAG2hwkBvppJZO8SybF7RWZ1Z2va2LMvbt9vf+THRUW1ulY9nVyPTUEMN7UVqKhDziu29xYhRhtRTBLPWahjxp0UkM25THofWSEW1tG8fuf6+UsatPKZJTBe2k5DIbaYAlOQ3TgTuT5jpwtfyy/YEhBTRbahGJk+I7imMlFoxcsUxIAQMIr3tXw+JSVGzuLSHTOGCopM/lfVEMheFWJA+851c4yMGFivC3lgm1FKbHGAAZGbV4p5Yxfotf8gym0piCnINjBqSbwJcLRCwgKSmn1QXLE7yfGt7TsVJYanMRpgU6c1qp61IYYSIiYVD+zE/ZGBihpbUS7Ak2XBRR+ixGjsYi6kqjCWt6+d/2FubJ3C5ykhNiynd32fRzZ30QrN6vqKGBhvSm1RYMBBg+g9gNEyWAKwOLCPi0VMjO8Z4WOfGneXtqViYuR4URezjlAC85qygSvHhGVoWfG2nzzLB/Y5R9RRi7KY65gTuCL3lONI3ShNa0NM2nrn+qzAIOfMZKs718/jgPfuipuOjYl5aT2AUOHGtsUhJu4bkFjqldIxcG5ekVyV0kWMvxsGsiP8QS8dh7QJOqFVKQEE9gcoYcoD63TeGggAEWZNjdA0DdqEOowngIvbS2oEb6uwgjPnTlJeasZ1tYCMffgB4J1jqXJS23I/VtXKYp+zRcejU8rIYOUIHZ0XSJWmVogJWIO8Mj4LOCKQlrahTFPTBPyZMjk/+qsm13IcE9dAsg32uXfEIP/3d35VlB3HLBbYH+JCxhC7fU1U3tyvUWxIufBLupW06wjpF3Qy1IIVYAAKRYOrR8cNOyTr5HKhmOjcc4Dhe6DFYELLBOQsoFE3NBXYz9Wbe5NrbCfqXypjn45EByp1av2O/eRNKXgpb7x+3infeF1ywYipmct5/P3SeUtB/lqIKbyAAscyGMaSz9Z2cZ7sK880Jy4S7ZXyChCjHRa3VIsX0L30ouSaLQKxVQCmQLt1VUDGUG3YKfXkcstRILMGXHPtqtkOcFBPcedMfQZgKCCLjfRtqHMgo+7WDHYADEDm6uBcgE3KnUzZil9rK8SoGyVGW3omQGTOsbpzfVY9kQlvjReRnpBTPJxTDcQAB+eRG/VHFdWADJilJoBDPQr11FIgRoJ6wzQnamZTLADY2x+9Oc6FVHiFS5JfM6OVyPzcNApkkpQYZazn2tC6HRihhHALU9AKtxGDYl8LwLQ9qDLAF5YTr6tL2gIBFBxgskCMfbasxKyuZE3HtI5ylhQP19IKsUn5zCTTAjgrYNkvlc1vgZiCTUJSelMutCxCbFUFFkKM9VtXkykXSFKJg2UMMApkKLIaaGSal90MBMikj8GS+sx+QKl2mnsfF3WhxqxZ7GH9NRCrVWI8B2mB+1JKzAoK6dSFH9XQPnR07cilpcInPDZct7RNy6BOy2QdwACwqb5HPXPuJOdMu1guDbIsxBZNZI0BZfmcgRh/kivxKv7yLTMNA9m9u5ka+zfj8jHSl4JWuI2OitumQdGamomdWdQY0KidRkLM6k4uFRPjh1I7XAk4fDfn6oR2tAII1ywHIGsZ8mxxWHlhHeVpcSuxSa5t1hgiZeAyo0xz51hoavKrJMSOqsAUcCWI8QYLAu+FxyIugAz3tOc9ZNqmga/xITBugRiKhGz5lgk3cS7mBgiAZq1LqRDT40Pwxutbdyfn4juiKlAlzz1bdRlw3UywYKAgMRpMZSMgRrkWJSVAv3M9GbOrckv3AwWURx+u+SFIGfwAYpsAGNAoQYwUj/1D4yaQKcBYMoqpnxVONctBo5b63qy4w8efgRhvgGiZAJNl9BPIoAxrphqI1bqTViW2hDtJh7KCRn4oK4wEmCzxJ+rPPYA9CmLmwQeSchOPB+K5WewmIAzTOu5cF4DKuwIb484XILYZgFkgxj57KJVAxo2DXMbILLkAMlDR+T6ypYP9NRBjVLJlsigxoInLmcoLK9WpEAMkMXjjz1tWYmbXKhMfKtmI/mWBGPusDTHO29I2QJWDt9WljEEmrvseZjkFWrLrBDEMPP0rUY0yGbXvnBIL651xLWMDEKAnr0dUWVhOzfrCb78gtcGiklBijEy2TATs52JiAAfIjIRYrRKzBvYptzdPrEYtoR5qJu470xseMmqHukYpMX7kY7ikPgMc6TuJEyfGxTECpVBtGdc1Xkb5NYNoAjEqH/IoUQ0U4n1rIMaxgKzipiIwLoMEPU8fVL6VNnHdp024b7yfK1Yt8Wc6amsulGV0kvoAZe3oZ40Sq4XYmu5kDcRwwWomOqZF7bBP7l4eBrFvvymZ8XMAKkEMW2ATE6gLYEPtMbiCOrRMAjEJUC6d8R5DqfZzLcRwLW9eyV78lDEm9dkZI2uRwHF7gIBFJQEZgvO4nzWTtXyNK9WOfirEAFQM3vjzpt3JBeJWuesCxExxo8KziqMgRpvlLRSFrHtVWXMjn4R3TLCeARm2svStMxnmBDA9HbkWUJb9ayFGmaixRNAxd1Ox/cEnHu1L5L15RR4ULtVh+Q5oWJNdgQIJr1aXD5WHm4XCioESf2afnhQLC8RGKrE13clc3Cp3vS8TxOZ+5BRkc8ou5bLqNo4FZHOK9xxiOtpngcta+7RADKBkhqZzN5ao0J4g/62r525proKK7agrS1wM8AACFBkuIpAiaK9xBG4wPrOd9+uj8CwAo1zqj1+7YzkFVWKorBiM8edRSkxVJOfeOlW5k5WvcK6BWG6waitKbA5i2B93kHQVk/rMqDKBYCatQ6/xOcToxJdBiZ04xAAB2fgWNaNgAFCABwWCkgNqjF7yGbVmdVEpDwjwNooWCNRArFaJ1Qb2aUvrVAWxkTGxjEexFYhZ7UvKCoF63MtWVSZuJa+iz0wSE5PRhh41MkKdtSgxnresvLEIIHa9Wog4XGXSY+ZayGZrqoVCTJeAAbUFuJhrQKhltMTa9FxGQmyrgf3q0MWWRyf3D3HPgYbvc6OTei+klsSfebypGWaknWT69jnEGAXoTQJdGmQtELt1VYKTKSOmtiHvJWesVYVy3I2z7ozjsG3IdDLyaxSUQqhnCfh4j5i6pGGbLOs1EBvpTnbHxKyP4DTkiUkaA/9LmXGdpu3HyBN77VWTUgJirT/a3NsoXXkJosUOgZ1EjWUe+xOIcZMK5bYEshaIAdIKl1KGsVtHZQFYpo2WTl/aB3eON0LMPSLUA63wWABG2kaPG6YQsyjAWnfSqsQotxdiNRn7ufdr5a5tlauaibeNcidr2kYbeiYGE+l7QLsmXsa+/BDE0wQxvpDRlq2ALAOI2dwu3kf2iUdnHy7lojWrz70Cy+XyxEZu+QzIiG2NBhmKj45vHenMnYtCDJUVAjK1PlKJtebQheclwei5VINC5npYVriO+2lJPRDVkcmRGgUxS3qFKMWCWxeeq2WdHwzL+ahCJf9M0qKiwi9AjO82o8haIYYa2yewAhkMFU4YYcqLa3EjVYFl/POwriXWGSm0qJsULErbiJ8xIMBAQKsLGZ5fDcRalJhldBU4LgExy1sscKt4aFpSlEJDFNYZcZxTHpQrb4rIPEdo6fSUMZfLFTbTqj5VOdWcc1hPbt1yTgrQ1KjtAcSoaBOKrAdigGyvloh54YNzY8pN99h72/9wd19mbX5Q7uLNbSeGQIpEDkbAwAo49lNwob4YyexVX2H7R0PMovDUFrSlZ8JNnIONdqqUMkjVzQ+FFY4y2JQqZNBjR9bzVTjGP3pALRd0z5zGhc24iJStiiu35JqkXPgkxKjh6IqsF2I60LBXTqLOevLhKOf2tepk2gtXq+LDnDtJpyYdAuXBOm4ncGLWdWJdrAMv9iO2hLKrfaTI0uwaiNHeEW92Bfacf+/5ASbLozPi9mWCzbHN6E8WV5J9UmpDy7OqFtSc5bEd9jEBex+/So3IArFvfehd4uHEno+2u7TkmBy4LmzPPMmQhRiVHlWRLQUxhVnPcq/AUhewdHFav0OBkRtFh8ypMOCknZWHx5kBVDzz0DffteR+1bRfByOsimnEO/axFXapfSQrPk86lSUuRgcDAHPKnE5uLQ+IpYLX2kYrxETZzMSvOE+8FIsKEpjQtig8Q7s4P+wgMNyDxgJQPSf6lQmkmVHbIsSo5GiKbCsQ2yu5uRtVL0jvEhgAMFRUCWD8qciWJlVi6tLl2s72WiVW8ziW1j/nKvNDwY9AzvW0wkJBhpsTd3B1s2Qfi7tk+EegmnYpeAAV/Rg40kaWCg4rwIBMLrVCISb17cHO/oCbY6gbdSv10wZei0Xe2CsvS86ZCWBPPCzqmGPjaRZiHHAUkGX+KGR2dLJHccXHArCG/8KMjWz9DMDosCUFBgD4T8k4LmGtY9R+CrGllRjtBdglm8TA1DYwuosSpW3YFkWKSmMwg5w4Bjawd2qis5vcP81l2uc9yb9j3bsrnZNOTBlWUIgrOfMmlmqIARUAGrRDPyt0LEuOycX/YohpeRwjgMI2+5nP4TYrwCiT8uIfCq6dCWLsKK7UGukXe9dN/pgjIV25iM2pETGkSp/VhZy5qVIdoHWb5dlJFBrBfp6LRE1sZWpxJ61tBz64iTGsSp9RZMQCgR+w4niW2I+Z7xR2KTuyDRVR08m0o0nnpQMb1FfY4YEeQChNLRDTOlqX2CCnwmhrDmKt9aWOK7XBDDEau0qMzPBesEkZliDU850CLPP8Wukma/0OtUAnK3XM8Ds64Ec+8O5pJteLGVcUdYEKQXEQI8O10hkXSh8Yb22rHge4KI+ZehQKYTtL67TJ0h72q4VYqd7wOyCX+3cnXBdREKq2Ri5n4ldq87UhBojn4LoGxLgOktuphgiWVRDjuCnLnY7eA4rUsTevZF99G7RZVqd2pMrp2cZ5Vb6XLG5by2d920TYwebWURvxDEhQGao46Pz8AYmqEToto5q4pECOegEQQEopkty56EPmtJEyayFDu7VNlAGAKTMVo6JdOgo7Z5Pa72l7Kb4INEaDDJVhzetaG2Kc+1w8eDTE5uxTDTFu6iGKbA9Fa6yH/eRdYEvCdA+wuYuW69g92+nEtUqmtsPq/gCEugCdAgigkIKBSwvQShNQUVhqmb1LwEsZqMTUhFqqUarW9nAeQD1336lbOQpkdFAC73NupNpkVYhlUhq0LbocCTF1yUv2aYIYjV8cZDzzaMy5UeNxQVFNiyhCANbwUkVtS+9yTYjlOrjGkFA9xKFyEx2bMoBhrqza7ZQFTHIQAzJAFvDWlj23P0oVtzY3Ube+gSEVr2ndVgsw2rcWxMiTk/6VM0qwfRTENLY4l67RDDHOoev5w9jly4xGBrY6WJWTa32AO6x/D7BjKDA9KeJYIzroXAdOfY86wT3M5VsdA2LYCYUIyFCPqXbXbgPanCdllqBN3YCMNAoUmaqDVnhxnDwHyL/KzwTy9f7QZQ3EgGRTG2cSbrUtuuQcOJ8l7DK19851cbFTo5Fary67IEYhi41aNqggGfLthZgqsBVHIdX44ZJOZPnz3NqO2ro/yogOnurcx4IY9gJkAB9bAbMaNci+oQvNIAhu6pz7HF4nfjh5fE1gRrpA5QikHscPZs6FDeuL1y0Qo008usSIotY31075fp8GIX06rnjmM4NtDAAATpkr7KLg0jawlLw7I+C7Ica5TaOFACFUODXrx3Anae+tq6s9SlS6DwAD7xEbEfdpBRlKBZVC28KJz8AAyAGSJWbKor6cOxnWzzpwZWACF3SufsqmvbjJHKO5Y3GZNZ/xQoDElAumnTexVPUGWFrhpW0zQ+wzT8kh/NAzCCb/8I0yQ0kmlnwvL0wwgkPbEy+BPACangTY1zfBzWKfRGpVXE/4eRGIUWC3a7kHoPXXif26Avt7gB3ThQwvBOucU+mB71YY9RwHVFPxIlzNEXONKpL7bp95D5i0PYw2sq5LgIdtYxjH9m/5TJmkYnAf8cwjHTicAQMd23pfz7WhFmJanrQTG7zy8nlbv/yC/HgjQGpdWi2ztJzqA/aBXWg/s9pI7PPSi132WQxinJAAoSchltSGLz5fss303eTG1qg93ReAUdeKeWBTw2dWuNlRP8SleuCz1LGoGIDg0zYs0AqxbbR+TCsWhRhNnECmwKhZGuHSpfqow5BQO8bc5VL59SJOg1uVg1DoOoXuHO4SxxH3WRKAlJl7NKd8Nv7tCAs4xA6tujjEqGICGcCogRj77iEjz6Ahw/c+urgDS7zQcKMKDLuR7AmkcgBTVURyaug64TZxLM8DEvdh5l+TmDlGk10pG9jlyk9tB4goQ5+2YQGH2OF1GAIxqukCGTAj/+vmFfkjD2Jf8ocevA+sNS/MqPIOTbTOFsBUCuoDoFJmucYggD1xpXAmC564EOADdqrYUtCKtznE1rn+1locYoeWGgYxqpriVi2KTBUcx+qs22qXCjBjvO3QTGO3ABxG2XLpAoCE72uD3rlWEwSPYZX7TN28wNCnbVjAIXZ4HYZCjOq64le1sErtD8AactAOTTVuC1DB7cuBBBeQ1IAlJ9I5SrE3bYsrsSWt3l+WQ+zQhsMhRpWLKLIUoOa2KcCOnMh6aPaLW+Ye/p5zJS+WZvtE/MwCMepeGqC2FvpeKQs4xA6tsgrEqHZ1kJ0IwIhlEacqBdxRQ0uOEJJQitLKua+qwlgSp0tl7R/eSr5lDQs4xA6tvBrEqLo72D+nvPR7ALaRTPxDk1/cYoEYMAFypcD+xVLznwAYD5tbVBjwZKRzqVhcvlX+jdUCDrFDS60KMaofDjJVYBtMZD00//kW4ITbFiqg1DpxM33ejyx6C1wYrQRcvFgQt5BygVOq/HgbbcLV9Wk7FnCIHV6L1SFGE4a5lgDsCC80PDRr3Za5wH4IFxQUMGOJoiJAjzvKDKR0XZe8/BBoASTUnMWFVNAtOSJaZxHfO2cBh9ihZY4CMZoxPTSuLmDvUhXYxoP4h5fg/JlJgGFVSAo1gATMgFNuri1TAQYoU89Mptrv29azgEPs0NZHgxhNWUyRKcBOyIWMLwXJrlt4FY8qPdShT9uzgEPs8JocFWI0pxtkCrATVGDx5SA2Bsha1JOqs54l6otHjFyBxVdmO58dYofX4ugQo0lTsL/WpdQY2AkrsPiSoMhwLQFKD5BqjiVexnOWBPEtgwVxm/3zehZwiB3aehMQo1mTIrOCTBXYRh8lOjS1fQsgQZWRowXMBDKFN1vUAIt9NY5G+cw8U+nqy359jrmnQ+zQ+puBGE2bQAagSjBTgF0CF/LwkvxwC+kRKDMUEqOMwEzBo6ONGtAHTPGs34XHsQ/Z+oxkEveiDp9OxwIOscNrtSmI0Tx5KWLpxYrvEIDFlwp1xtsoyPcCPig1QESKBTNgYgZ2us52Mv2BIDDUP6t1lzG27ul8dogdXqvNQYwmToqMV++Eimz/Kh75/vBcfItb4NJbwAyxZ5689LbQE9wkxGgceWTyDjFU2X7mvWKSX6at96Vb4B1mAf6c5Fsfepf8RRp/k5ab+QOTd8q0WYhxAYjX8CcMMr/xusdv3il3pZ9n1gL8D6N1zhZyyb7YNMQuma39dNwCboEBFnCIDTCqF+kWcAusZwGH2Hq29prcAm6BARZwiA0wqhfpFnALrGcBh9h6tvaa3AJugQEWcIgNMKoX6RZwC6xnAYfYerb2mtwCboEBFnCIDTCqF+kWcAusZwGH2Hq29prcAm6BARZwiA0wqhfpFnALrGcBh9h6tvaa3AJugQEWcIgNMKoX6RZwC6xnAYfYerb2mtwCboEBFnCIDTCqF+kWcAusZwGH2Hq29prcAm6BARZwiA0wqhfpFnALrGcBh9h6tvaa3AJugQEWcIgNMKoX6RZwC6xngf8H7DsQFMq7bv8AAAAASUVORK5CYII=;" parent="1" vertex="1">
          <mxGeometry x="2175.25" y="494.5" width="107.02" height="40" as="geometry" />
        </mxCell>
        <mxCell id="Mp6pbIfyjrRbvAWgAkd_-140" value="Dev Deployment&lt;br&gt;" style="sketch=0;html=1;dashed=0;whitespace=wrap;fillColor=#2875E2;strokeColor=#ffffff;points=[[0.005,0.63,0],[0.1,0.2,0],[0.9,0.2,0],[0.5,0,0],[0.995,0.63,0],[0.72,0.99,0],[0.5,1,0],[0.28,0.99,0]];verticalLabelPosition=bottom;align=center;verticalAlign=top;shape=mxgraph.kubernetes.icon;prIcon=node" parent="1" vertex="1">
          <mxGeometry x="2095.25" y="553.5" width="50" height="48" as="geometry" />
        </mxCell>
        <mxCell id="Mp6pbIfyjrRbvAWgAkd_-141" value="Automation &lt;br&gt;Test" style="image;sketch=0;aspect=fixed;html=1;points=[];align=center;fontSize=12;image=img/lib/mscae/Azure_Test_Plans.svg;" parent="1" vertex="1">
          <mxGeometry x="2015.25" y="551.5" width="45" height="50" as="geometry" />
        </mxCell>
        <mxCell id="Mp6pbIfyjrRbvAWgAkd_-142" value="Promote&lt;br&gt;" style="image;sketch=0;aspect=fixed;html=1;points=[];align=center;fontSize=12;image=img/lib/mscae/Tag.svg;" parent="1" vertex="1">
          <mxGeometry x="1925.25" y="553.5" width="50" height="50" as="geometry" />
        </mxCell>
        <mxCell id="Mp6pbIfyjrRbvAWgAkd_-143" value="Pie/Stg &lt;br&gt;Deployment" style="sketch=0;html=1;dashed=0;whitespace=wrap;fillColor=#2875E2;strokeColor=#ffffff;points=[[0.005,0.63,0],[0.1,0.2,0],[0.9,0.2,0],[0.5,0,0],[0.995,0.63,0],[0.72,0.99,0],[0.5,1,0],[0.28,0.99,0]];verticalLabelPosition=bottom;align=center;verticalAlign=top;shape=mxgraph.kubernetes.icon;prIcon=node" parent="1" vertex="1">
          <mxGeometry x="1845.25" y="554.5" width="50" height="48" as="geometry" />
        </mxCell>
        <mxCell id="Mp6pbIfyjrRbvAWgAkd_-148" value="Approve" style="shape=image;html=1;verticalAlign=top;verticalLabelPosition=bottom;labelBackgroundColor=#ffffff;imageAspect=0;aspect=fixed;image=https://cdn3.iconfinder.com/data/icons/customer-experience-1/32/Add_Review-128.png" parent="1" vertex="1">
          <mxGeometry x="1755.25" y="547" width="59" height="59" as="geometry" />
        </mxCell>
        <mxCell id="Mp6pbIfyjrRbvAWgAkd_-149" value="Prod &lt;br&gt;Deployment" style="sketch=0;html=1;dashed=0;whitespace=wrap;fillColor=#2875E2;strokeColor=#ffffff;points=[[0.005,0.63,0],[0.1,0.2,0],[0.9,0.2,0],[0.5,0,0],[0.995,0.63,0],[0.72,0.99,0],[0.5,1,0],[0.28,0.99,0]];verticalLabelPosition=bottom;align=center;verticalAlign=top;shape=mxgraph.kubernetes.icon;prIcon=node" parent="1" vertex="1">
          <mxGeometry x="1675.25" y="553.5" width="50" height="48" as="geometry" />
        </mxCell>
        <mxCell id="Mp6pbIfyjrRbvAWgAkd_-154" value="Continuous integration Flow&amp;nbsp;&amp;nbsp;" style="html=1;shadow=0;dashed=0;align=center;verticalAlign=middle;shape=mxgraph.arrows2.stripedArrow;dy=0.6;dx=40;notch=25;" parent="1" vertex="1">
          <mxGeometry x="204.62" y="740" width="615.38" height="70" as="geometry" />
        </mxCell>
        <mxCell id="Mp6pbIfyjrRbvAWgAkd_-156" value="Continuous Delivery Flow&amp;nbsp;" style="html=1;shadow=0;dashed=0;align=center;verticalAlign=middle;shape=mxgraph.arrows2.stripedArrow;dy=0.6;dx=40;notch=25;direction=west;" parent="1" vertex="1">
          <mxGeometry x="1622.56" y="680" width="615.38" height="70" as="geometry" />
        </mxCell>
        <mxCell id="Mp6pbIfyjrRbvAWgAkd_-157" value="HP&amp;nbsp;&lt;br&gt;Secure Sign" style="shape=image;html=1;verticalAlign=top;verticalLabelPosition=bottom;labelBackgroundColor=#ffffff;imageAspect=0;aspect=fixed;image=https://cdn4.iconfinder.com/data/icons/essentials-73/24/027_-_Shield-128.png" parent="1" vertex="1">
          <mxGeometry x="1877.25" y="151" width="48" height="48" as="geometry" />
        </mxCell>
        <mxCell id="Mp6pbIfyjrRbvAWgAkd_-158" value="Container Image" style="shape=image;html=1;verticalAlign=top;verticalLabelPosition=bottom;labelBackgroundColor=#ffffff;imageAspect=0;aspect=fixed;image=https://cdn1.iconfinder.com/data/icons/social-media-2106/24/social_media_social_media_logo_docker-128.png" parent="1" vertex="1">
          <mxGeometry x="1895.25" y="255.5" width="79.5" height="79.5" as="geometry" />
        </mxCell>
        <mxCell id="Mp6pbIfyjrRbvAWgAkd_-160" value="" style="rounded=1;whiteSpace=wrap;html=1;" parent="1" vertex="1">
          <mxGeometry x="1855.25" y="778.5" width="435" height="200" as="geometry" />
        </mxCell>
        <mxCell id="Mp6pbIfyjrRbvAWgAkd_-161" style="edgeStyle=orthogonalEdgeStyle;rounded=0;orthogonalLoop=1;jettySize=auto;html=1;entryX=1.001;entryY=0.451;entryDx=0;entryDy=0;entryPerimeter=0;" parent="1" source="Mp6pbIfyjrRbvAWgAkd_-112" target="Mp6pbIfyjrRbvAWgAkd_-160" edge="1">
          <mxGeometry relative="1" as="geometry">
            <Array as="points">
              <mxPoint x="2365.25" y="171.5" />
              <mxPoint x="2365.25" y="869.5" />
            </Array>
          </mxGeometry>
        </mxCell>
        <mxCell id="Mp6pbIfyjrRbvAWgAkd_-164" value="Private &lt;br&gt;Access Repo" style="sketch=0;pointerEvents=1;shadow=0;dashed=0;html=1;strokeColor=none;labelPosition=center;verticalLabelPosition=bottom;verticalAlign=top;align=center;fillColor=#505050;shape=mxgraph.mscae.intune.reports" parent="1" vertex="1">
          <mxGeometry x="2179.25" y="863.5" width="46" height="50" as="geometry" />
        </mxCell>
        <mxCell id="Mp6pbIfyjrRbvAWgAkd_-165" value="Automation &lt;br&gt;Test" style="image;sketch=0;aspect=fixed;html=1;points=[];align=center;fontSize=12;image=img/lib/mscae/Azure_Test_Plans.svg;" parent="1" vertex="1">
          <mxGeometry x="2082.25" y="863.5" width="45" height="50" as="geometry" />
        </mxCell>
        <mxCell id="Mp6pbIfyjrRbvAWgAkd_-167" value="Public&lt;br&gt;Access Repo" style="sketch=0;pointerEvents=1;shadow=0;dashed=0;html=1;strokeColor=none;labelPosition=center;verticalLabelPosition=bottom;verticalAlign=top;align=center;fillColor=#505050;shape=mxgraph.mscae.intune.reports" parent="1" vertex="1">
          <mxGeometry x="1908.25" y="859" width="46" height="50" as="geometry" />
        </mxCell>
        <mxCell id="Mp6pbIfyjrRbvAWgAkd_-170" value="Approve" style="shape=image;html=1;verticalAlign=top;verticalLabelPosition=bottom;labelBackgroundColor=#ffffff;imageAspect=0;aspect=fixed;image=https://cdn3.iconfinder.com/data/icons/customer-experience-1/32/Add_Review-128.png" parent="1" vertex="1">
          <mxGeometry x="1988.98" y="859" width="59" height="59" as="geometry" />
        </mxCell>
        <mxCell id="Mp6pbIfyjrRbvAWgAkd_-171" value="Continuous Delivery" style="shape=image;verticalLabelPosition=bottom;labelBackgroundColor=default;verticalAlign=top;aspect=fixed;imageAspect=0;image=data:image/png,iVBORw0KGgoAAAANSUhEUgAABBAAAAIICAYAAADXMB08AAByBElEQVR42uzYzVGTURiG4ZRACZbAQvAHwSDCKGFBCZZACd+MiIpI+FEhbijBEk4JlmAJAWKMBJPje75VJgs3OqOM1zVzr8/yvPM0AAAAAAAAAAAAAAAAAAAAAAAAAAAAAAAAAAAAAAAAAAAAAAAAAAAAAAAAAAAAAAAAAAAAAAAAAAAAAAAAAAAAAAAAAAAAAAAAAAAAAAAAAAAAAAAAAAAAAAAAAAAAAAAAAAAAAAAAAAAAAAAAAAAAAAAAAAAAAAAAAAAAAAAAAAAAAAAAAAAAAAAAAAAAAAAAAAAAAAAAAAAAAAAAAAAAAAAAAAAAAAAAAAAAAAAAAAAAAG6SjY/5VtScqJrqLEq/WTXV1uSbDQD4A/9Yq5M3W51xtX46rp6ejOqefPhxFqW199dp7d11Wi0dD9Pjo2FaObpKK4dX6dHh97R8ELUHqVnaH6SHb7+lpdJePy3u9asHb77WLeyWes/uv+417726LM02AABuuomjamtqDPgc5X+wbpTi+Cu1W6ejOAJHm1Fz/WQ00wDgvxJ/wuzUuP3pV/9Yq1Ma5xgQcowHdTEe1MWAkGNAyKul42GOASHHgJBjQMgxIOTlg6g9yM3S/iDHgJCXSnv9vBjFeFC3sFvq5RgQcowHdXdfXuY7OxelL/M7F2n+xXma2z6v5ra71e3n3WZkLAcA/r44mGY2frJ3Zl1SVXcc7Ufj2GZQo0ZbURQRbFFRcUiLLYLmoV/jWJpETRwoQUFEscR5SEpGzdP9CPUR6iPcpcw0cJlnuEIQJMb88zu1+pKmgqRpqrrPuXfvtfZrdz91nbPrf845ORLUZeJJEBiWWvw1VECwRzIbC8F/2Qx9izR9+Q81WZGlh5f9k0UZAEDADIrdFVmVdZlKO52eBgSbLBUQTAFBpqZ40PC2hQdt0sKD6aR3D9RvrRyIZKW7sr+v+539TDAAAABA2xZZfXkJBcMMCKZwcEIFBCmXHo+nLT1em7bk+8pDS77vkUwsAAB4xqMKBbIks1BgP2VOA4IpIJjiQUMFBFNAsFsW7LOJC/bVJ769L5rw9t7yhLf2EscBAADgzCYLmmJB6ssG39OAYNOkAoI9lLn4WNK7+Fitd9GxSu+ioyzGAABGEG3mu7JYIOvSBvs7SUAYFBCkAoIpIJgCgt3snL8nHj9/T3TTm7tLkkkFAAAAOGm6oCQjj+8oCC0gWK9zkfOoPej84mh96hffVadWv+ubWj3ClAIAQOuCQbcsy5pM5UnBgIAwrIBg46XigZTzdqfj5u2u3fjGrookjAMAABSFQRMGUV6PIngaEEwBwRQQ5BEtFo/ED/ztH1XJQgwA4AwnDJqDwWAJCG0JCDZOKh5IOXeX3TB3Z23snJ3lsXN2MKEAAACQJwZuk64UfcLAs4BgigcNe/7qPFyT5d9+frirAwAATuIRPZMoI23UE2mDJSCMWkAwBQS5w5le//qO6LrXtpckU3YAAAChkU0ZFOkOg8ADQkMFBHkouf/zQ9X7PzvEtzoAUEgUC7pkSdakZT4qCQheBgRTQDDFg8z6mNnby2NmbyOKAwAA+MjA0YSSrPmyIQ9NjwKC3e/8zPltet+n30b3fZr2dQAA5JiBaFCWsbRMAkKQAcEUEOza2dvs2lnbYlm+ZtZWYgIAAMBoMn35j0SD/AcEU0CQqTO995M0uveTg0wmAEAu+KloQEDIVUBoqIBg17y6Ne4qby13lbcQEwAAABpwPCFYAwgIpoAgD9o9Hx9M7vn4QFWyCAOAoJjxlXXK0oym4wkEhEIEBFNAkFvs6vKW+OqZW0pXzdzMnQkAAABtem6xyssJBISBgCAPNJzy0YF4ykf7S1M+3M8iDAC8RdGgR0YylaaAYASEQgcEU0AwBQS76pXNNclRPQAAgBaEg5Ks+7LJzrMBBwS53xQQ7O4P90d3f7iPpyEBwAsGpg3KMpGWSUAgIDQFhIa/eTlJZOXKlxOm6wAAAM502oAjCgSEYQQEuc/u+mBfctcHe0uSqQQAaGJEpw0sk4BAQBhCQGh4pfOlpHbFS5uYSgAAADhNOOhh2oCA0KKAIPc607ve31u98/09fJsDAG1n+ldWUhyIpTkJCASEswgIpoBgV7y4Kbn8xU1lSRAHAADoXXy88ZICdxsQENoUEEwBwRQQ7M739tQmv7eH4w0A0Opo0CkrMpU2QxIQCAgtDAh2uZTpr/+ysSoJ4gAAUDy04OiUFY4p+GMBAoJNbri7Pnnh7lIHAMDZhYMuGWXhwElAICC0MSCY4kFmdNmfNxDEAQAg/7j7DbTI4AlGDy1QQDAFBLtj4a7kjnd3ERIA4IyY/uWJcGCZBAQCwggHBFNAcNYve4GQAAAAOcSFAxn5sllGAoICgikgOJPb391JSACA0/KwwoGMFBAaoYCAQEDwICCYAoJd+sKG+qUv9BMSAAAgfAgH4VjggGAKCHZ7ZWdyW2UHIQEAThkOpDkJCAQEDwOC7LdLnu+vX/I8IQEAAAJEiwXCQWASEHaaAoIzue0dQgJA0WkOBwQEAkIAAUHK5/rrv3puPSEBAAD8h8sRw5WAMBAQpAKCTXpneyJZgAEUjOZwQEAgIAQYEEwBwVn/5Z/Wd3cAAAD4iBYOhIOAJSD8T0CwSQsa1m9dsI2QAJBzpn1pnQoEFZlKIyAQEHIQEEwBQa6LJM8/AgCAH2ihUNICIvFlI4wEhBYHBFNAsFvf3hZJFmAAOUTxoCRPhAMCAgEhZwHBmf7ij+sqsrMDAABgNNCioVvWfdkAIwGhzQFBbk2739pakSzAAHKAokGPjKU5CQgEhBwHBFM8cKaSe34AAGDkcPccaJHABYk5k4AwpIBgigfORPZ1AECQTFtuXTLKwgEBgYBQoIDQ8Od/WFuX3I8AAABtjwdl7jnIpwSEoQeEzFvmb6lLjjUABITCQVmm0ggIBIQCB4TM6sXPrmWqDgAAWn9c4ZG//zv2ZbOLBARPAoIznTh/c6UDALzmoeXWI2MXDpwEBAICAUFKBYT04mfXcKwBAABadVzhx6ovm1wkIHgYEEwBwSa+uTmWvNYA4BmKBp2yKs1JQCAgEBCaA4JzjXU+u6be+cwapuoAAGDY8aCH1xWKIwHhrAOCTGzCvKQqGQcF8AAFgz6ZSCMgEBAICP83IJgCQiqZqgMAgDOeOuCSxIJJQGhZQHAmE+ZtYhoBYHTIpg5q0pwEBAICAWHIAaHhRc+sjiWXLAIAwOl5eNkPfVoAcEliASUgtDQgyE128xubqpJpBICMkZs6SKUREAgIBIRhBwS7qNSQaQQAADj11IHkroMCS0BoS0BwJjfP3cg0AkCb6dXUgaxmoYCAQEAgILQkIDjjC0uruRsBAGCYG+3cjXPpA527DpCA0L6AYAoINn7uRr7FAWgTvcusR/EgkUZAICAQEFoeEOzCp1elstwBAABDukgwks1j/YmsyqCLrP7+ii8bWCQg5DwgOOPxczYE/T8DwDcUDyrSXDwgIBAQCAhtCwiZtQueXsXRPACAUzHEkf5UBvd2rgsf2iDGvmxekYBQkIBgN83ZkMrg/mcA+IaiQZesSyMgEBAICCMWEEwBIb3gqVUczQMAaNpgR9KGakgRQX9rn+SiRCQgjE5AGLA/uun1fr7FARhePOiTqTQCAgGBgDDSAUE+5VzJ0TwAgLMc6/e+xnJRIhIQvAkIpoAQj3u9P3f3qgC0kweXWTWLBgQEAgIBYVQDgp3/1Mr6+U+uJIYDQHFxrxGcxbfzifTyn+iUTw536W/jyAISEPwKCKaAkMpgJpgARguFg04ZSyMgEBAICN4EBFNASKX3X6IBALQrIJSlnYXVDs9wkxEcWUACgrcBwca9tt5ufG29d/87AHxB0aBbptIICAQEAoJ3AaHheU+u5JUGACgezd/Sh36UgVcWkIAQTEBwxjfOXuflFBPAaKFgUJLmJCAQEAgIXgcEuSI674kVfI4BQDEYOL5ggw31KIN+fzdHFpCAEFxAMAWEVHIvAoBQLKhIIyAQEAgIwQQEU0CIJU8WA0D+cS8pSGuRlY5RwIULLkpEAkLQAcFuUESQ3IsAhWXqUuuUkYsFBAQCAgEhuIBg5z6xIpXeTOQCALRr812T1kK7O0aO7K6DxJcNKYYlAcGrgGA3zFrr5IksKBwD8SCWRkAgIBAQgg0ImcRwAMgn2fGFFhuP4N8e+bIRxTAlIHgZEGzsrLWR5DwpFAJFg26ZSiMgEBAICLkICHbu4yu4JBgA8kfz8YVQjjLo5/fxwgISEHIdEJzx2FfXEBEg1ygYlLJ4QEAgIBAQchUQ7GePfxNJPscAID80H1/w/SiDfmaXrPuy+cTwJSB4HRBMASG+/tU1XEoFuUSxoCLNSUAgIBAQchkQnDERAQByQfPxBd+PMujnlZk6QAJC4QKCKSCk15dX80ID5IoHllrkYgEBgYBAQMh9QJCKCI99w+cYAIRN8/EFX48y8DQjEhAKHxBMAYGIALnBxQNpBAQCAgGhMAHBFBBSIgIABE3z8QXfjjIMTEhUfNloYj4lIAQTEJzpdUQECJwsHhAQCAgEhMIFBDtHEeGcx77mcwwAwiM7vjBC1nmaEX2VgBBUQLDrZioizFzF4guCJIsHBAQCAgGhsAFBfp1KnnkEgLDIji+MoGWeZkQfJSAEFxDkKiICBMUDS6xTNuIBAYGAQEAofECQ8vdEBAAIiFHYpKeyi6cZ0TcJCEEGBGc6hogAAdCjeCBjBQQjIBAQCAgEhP8GBCICAATEKG3U6zzNiL5JQAg2INgYFxFe+Q97988aSRnAcXzgkohgsdqId+rtRdTm4PYIChbxBhtJIwtyyYEKKbz4Xwe0ukInnGAl490b2JeQNDY206TUnaAWKQ6WNGkWHes0j79n2OCwbpLL7uzsMzvfH3wLQbgy+3x2n5k/QQTm7E7wQBkAAUAAEACEYUB4wgYiMMZc3+CbfjOjAl7NSC4FIFQaEIwAIVW+x5hjy+MBgAAgAAgAwkhAABEYY1XYjJ8xkKomr2YkVwIQKg8IZtn2xR98+GLOLI8HAAKAACAACOcDgroDIjDGHN2sv/Hn7QrkUgDC3AACiMCcWB4PAAQAAUAAEC4ACGqfv2OMMbdmry+4cnAjAhAAhAIBAURgM9+tHB4ACAACgAAgXBQQlu7smyUQgTHm0nhFIhGAMOeAYK59DiKw8mfxQGV4ACAACAACgDAmIIAIjDG3xgMLiQCE+QeE3218+GLZysQDZQAEAAFAABAKAAQbbxlijJ05ri8QAQgAQlGAoJogAithtx7+hwcAAoAAIAAIBQJCurQBIjDGThvXF4gABAChYEBQn/FUazZdPFAZHgAIAAKAACAUCghKgJAuggiMsVHj+gIRgAAgTAUQQAQ2VTxQBkAAEAAEAGFKgGAECD3V8BhjrMRZPGi5cmAjcikAoRaAACKwQvfmQ9NSGR4ACAACgAAgTBkQbMniRgIiMMZKmwWEyJUDG5FLAQj1AISrn9p4qjUrDA9SZQAEAAFAABBKAgSV7HiMMaaVBQg9Vw5sRC4FINQKEEAEVhgeAAgAAoAAIJQMCLaOxxhjXF8gAhAAhJIAQb34yX7oMTYBHrgACP5Pxzok9s3K/b555ZtHZjk4MJe3uubp9/eyvLXdk7L/flX/z1sPjgEEAAFAqDYgmMX1BAhnjHF9gQhAABBKBATFtzhsPDwoAxBe/+EfHf7sAe/ILH91kHUCA0+++4tFgbFaeOdn0/r2CEAAEACEagOCre0xxhjXF4gABAChNEAAEdhjbTWHB5MCwmp0bG5u97Ne/vqRuSYYeO7u0K8GSuj6vUMAAUAAEKoNCOnCesLrHRljXF8gAhAAhNIAQb3wcRdEYKdu9YFprQ7w4DxAWNEh7sZ2X4esQ9P88iCrIRRQ2Tf/Org71Wvf9wEEAAFAqC4gGAFCsrDOmxkYY1xfIAIQAIQyAQFEYKfigUrf+PHY3Aj7WVeFArZnP+yaxnt75qmN2AkMGCddhQAQAAQAodqAYIs9xhjj+gIRgAAglAgI6vmPQIRabm3XH7SpwkHxoNSVw/60an13BCAACABCtQHBxoOBGWNcXyACEACEkgFB/QYizMvWdps5HAgH7ahYJa4c4GfdS8EBgAAgAAjVBwSzwEMVGWMFAULoyiGNyNUABAAhBwggQhX2/18NRHX61UCRPfPBHoAAIAAI8wEI6cLtbtNjjLEJASFx5ZBGlCtVsdpR4aC28gc1JvzVjT9oU4UqUrENQAAQzgcEtQUilLzhXw20R/xqoOfKoXueAhDGrqdi/Zsd/f0IBQih8MC3CQ9sDW/MCRBaAgRfeGALBAih8CBSsfAgARAAhJGAoAQIiccYYxMcpJqOHBapvvXUTh4IPAdmgUL5KlCRPvzFKgUQAIQcIJgrW7+CCNP51UAw/KsBVw7TdezyVhdAOLtk6O+YE6/NEyA0hQe+CoQHHRUDCACCAMFcut2NPMYYG/OQFDhyiKR6lOY+ZPmqcq8VEiA0hQdtFQkQYgCh9oAAIoyPBS3V4VkD7sczEEaid+AKeF90AoSW8GBz5f7fHQFCAiDUEhBsPA+BMcb1BXKuEzAIXPlGZhoTIPiCg1AlAEItAcFcuQsiXAAOGipy5XBM53f93mGdAaGnOmpTzeXdceFB4+b2X23hQaQSAKE2gJBe4nkIjDGuL5ADJSqcZzA4a4KDhmqrztv/sndvv3ac9RnHJ9s2jh0bFk5IUktIu7JUiYLUdVFfWJWqRZAKthNns20nAXKYHApq1cNSKyHRXrCkpGpu2t1UCAin9Scsk8SOEzsZhzgHwGTgBhkFGA4SCBk0EYILIqSX57WXnR17L+91mDXze2e+X+m5ai/J3n4/e96Zz/0hBxAaAwhu599/O9GCe6qm1IQHPHEQ3nY/cq5pgJDUHb6vlgBh8a8+++tYgDAQIOQAQm0BwS+JiIi4vsAqQoNuXf86M0sChLYAYUV4kAEItQcEv3TnQyDCqHjyIMztefSNJgDCQIv3B3i1bt4JEJYECH0BQg4g1A4Q/HoRERHXFxhoYC8BQlt40NdyAKG2gOD+7KFvpRqHkCvxoGPlQMwmm/CgroCQgAaTJUBYEiD0AYRaAYJfI5+2ISKuL7D5L9dWmvpYZ5EJEGIBwgBAqCUggAhrA0LfyoGYjb+NB47WDRAygUFvP/g9UwKElvAg1lIAoRaAkG049Bq/s4iI6wussCVaHFHhCRAWP/R/v+8JEHIAoVaAoAkRHgQRVgFCZuVQzMbfjntO1wUQBhpvnZ9DAoT2+z7zy77wIAcQggUEt+EQn3YkIq4vsNnX52mD8hIgxAKEDECoDSA4AUJ684PfBBGUlQMxaxQg5Fp//+M8bVBGwoOW1hMgZABCkIDgF+SnSYmI6wus2uVaj3cbVNcH//d3HeFBAiDUAhCcAAFEABCC3a7u2RABIdd6+x/n3QZVJUCIBQgZgBAcIGQLXGUgojUAITZyUGW2dgEOeJmUmQQIHQFCAiAEDwju5geECA+82uz/towciFmtASHTYuDATsKDjpYACMEAglvgKgMRrQEIAyMHVmZjwIHxhAcd4UECIAQNCNqr6U1NRoS9RxIrh2I2/nY/ci4EQMi1bkRmEyB0BAcpgBAEILgFrjIQ0So8aBk5tDLggCZMgNARICQAQrCA4G7yiHB/QxFh75HYyqGY1QYQcq23jycOgkl4EGsZgGAdEL6TRkREXF9gq9bnHQfhJkCIhQcZgBAkILib7m80IvAlhsB2y/+/aRUQ+sBBuO369593BQg5gGAWEPx6ERER1xcav0TjsbQaJDxoaT0BQg4gBAcI7sb7X0m15h1+9h5pa7mVwzFbf4IDa4CQ7HucrwPVIQFCS3iwAiCYBYRc449NRE2O6wuNXq7FEdUuAcKi8CABEIIDBL/sxviV5h2EQIRgtv2uxBIg6LoCv8fqmPCgLTxIAARzgOCXRETU3Li+0Nj1ec9B/RMeLAkPcgAhKEBwAoT8xvjlpiKCiUMyG70d95y2AggrXFeofwKErgAhBxBMAYLfUkREzYzrC41bxnWFZiU8aGkrAEJQgKC9nL+nmYjASxWNb+cnX6saELJ9j/N7rEkJD1raAEAwBQiZBuARNS2uLzRuKzx10NwECB3hQQYgBAMI7j33CRHuAxGYre3qnq0OEHjqoNEJD5a0HEAwAQi8UJGoiXF9oTHLeeqAfMKD1t/8928GAEIwgDBEhJdABGZmH/iPn1YBCNneL/J7jM4jQkuAkAAIJgAhXzjICxWJGhXXFxqxAU8d0OUJEGIBQg4gBAEI2kv5DSACM7Ldj5wrGxAGe7/I7zF6e8KDLoBQOSA4AUI/IqLmpINlbuSQy+azbkQ0IgHCogAhBRCCAAR3g0eEe0EEVv32PPpGiYDA7zEa3Xv/5Sdt4UEGIFQKCO6ag9/h6SCiJqTD5ZKRQy6by4sS+R42jZfwoA8gBAEIToAgRDjdvP+2QQRTExqUAQi6ssDvMVo/4UFLGwAIVQICn3UkakT+M35GDruMKwtUcXv+61wsQMgBBPOA4K6/93R+/T0gAqtmGw8cLQMQUq4s0KQJELoAQkWAwFMIRM2I6wu1XKrxMhuaKgFCW3iQAwjmAcFdfw+IwKrZjrtPzxsQuE9N0yPCP/24I0DIAYRKACGLiKi+cX2hdss1PqVDMyc8aGkpgGAeEIaI8CKIwOoECPweo5kTICwKEFIAoXRA8IsjIqpnXF+o1XLed0BFJjxoCQ/6AIJ5QNBezHeACKzE7eqenQcg5BoHDyoswUFLSwCEkgCBpxCI6h/XF2ozrizQ3PKIACCYBwT9Rfj8mnf4AhHqAgj5R3hZIs2pnf/4oz6AUAIg8BQCUb3j+kJtlvKyRJp3AoQ+gBAEIGjfaN4/2kCE0rf74XNTAgJ4QNUkOFgBEOYMCDyFQFTvuL5Qi/GlBSotAUIfQAgCENy7PwEisGAAATyg0hIexADCHAGBpxCI6h3XF4Ifb6im0hMe9AGEIAABRGBz3S2PvVkEIKQf4TONVHKCgxhAmBMg8BQCUX3T4bNj5BDMwAMKLI8IAEIQgKC90CxEABBK29993k0JCOABVZ9HBABhDoDAUwhE9U0H0BUjB2EGHlCACRD6AEIQgOBaH28IIoAHpW37nckMgAAekI08IgAIBQMCTyEQ1TcdQjMjh2EGHlCgCQ+6AEIQgFB/RNh75D4rh+smbMfdp2cABOHBF8ADspEAIQYQCgQEnkIgqmc6hLaNHIYZeECBJzyIAYQgAEE7Vc9/wIEHpW/nJ1+bDhDAAzKY8CAGEOYOCGlEROHG9YUgN4iIjCY8iAGEIADBvetjNUME8KCS7eqenQYQ0g+DB2S0mz71egwgzBUQ/DoREYUZ1xeCW8qnGsl6HhEAhCAAoT6IAB5Utg985qdXAgJ4QIEnPOgBCHMFhCQiovDi+kJwAw8omIQHMYAQBCBoSdiIsO+J+6J9XzdxmG7idj987kpAAA+oBgkQ+gDC3ABBO7MYEVFYcX0hqOUaP2gpqDwiAAhBAIJ7511JNwox4YHm/ECEarbn0TeuBATwgGqS4GAAIMwNEHifF1FocX0hmOVaOyIKMAFCDCAEAQja80H9Y+6a/cKD/RfwAESobsKDKwEBPKCaJDhoaSmAMBdAyDV+LhCFEtcXglrYjxdT4xMgxABCEIAQDCJ4PNCcH4hQ3TYeOLo2IIAHVKOGiJADCIUDgl+YT78RNTGuLwSzXkRUg4QHMYAQBCC47XfaRoSFVXgAIlS7HXefXg8QEvCA6pAAoQ0gzAUQsoiIwkgH09TIAZnxuUZqSB4RAIQgAMEsIng80JzfOohg4oBd960DCCb/N0Q0bQKEGEAoGhC05TNLERHZzr+Mz8gBmY1exhcXqI4JD2IAIQhA0J4zdQC8gAdPnscDEMHGdnXPrg0I4AHVNOFBH0AoHBD4gxmR9XQw7Ro5JLMR46WJVOc8IgAIQQCC23aHDUQQHAgPnnIeEEAEO3sLEMADakbCg9YND/0gBRAKBQQXLfNJRyLTcX3B/HihDNU+AUJbcJADCOYBoXJEEBjcu3Cr8EAbHxF4H0IZ2/3wuSEggAfUnAQIi4KDHEAoEhB4mSKR2bi+YH5HIqKGJDhoazmAYB4QtJP9qIIWbn0LD0AEe3sLEMADalaCgxhAKBIQeJkikdm4vmB6Oe89oKblEUFwkAMI5gHBbTtcLiIID/51w23CAg1EsLlbHntzCAjgATUv4cEAQCgMEPy4vktkMa4v2N2BL7sPRkQNTHDQ1nIAwTwguOsOn9BBsQw8OPrVDbcddR4QZkIEPu84z4EH1OiEBy2hQQYgFAYI/CwhshbXF+xOePBYRNTgLiICgGAeEPz688eDY84PRLC77Xcm4AE1PqFBB0AoDBDyiIhsxfUFm7vtS+4nXF0guoAIAoQcQDAPCO66QycGWw+daEUFJzC4hAcggu1tuv1YGhGRR4QVAKEQQPBbiojITlxfsLnbubpAdCnhQVvLAQTzgOAECOnWQ8+2CsODA8e+svHAMec3ChEWZkCECEQoejx9QKQEBy0tAxAKAYRBREQ24vqC6fHpGqIrECHLAQTzgKA9m249KEQoAg9uP+423v70BUCYCRGeABHKWS8ioouIsAQgFAIIfjyVS2QgDwixkcMy4+sLROsmQGgLD3IAwTwgOAFCumUGRNg4xAO/NRHhAIhgdHFERKsRYQAgFAII/GwhMpAHhIGRwzJbezyyRXRZwoO2lgMI5gHBbTmPCM+0JseDp7+ySWjgNwIRtMsR4SkQwcY6ERFdSniwKDzIAYQpAIFrDES28n/dNnJIZlcfL44huizhQVvLAQTzgKA9k25ZHh8RBAVf3rT0jNu0dNwVigj7QYSSxjfbiS5LeNADEKYABK4xENnKH0yNHJAZVxmIJk5w0NYyAME8IDgBQqq1xsKDjz4rPNBKRIRrQITiRkSjECEDEKYABL7GQGQnHUp7Rg7IjKsMRNMiQktLAQTzgOCuFSJcu3x8JCJsEh68w+OBBiIEO77XTjQaEJYAhJkBga+8EI0KQGBcZSAaHxEECCmAYB4QtOPptR+9EhGEBcKDE84DwmSIcGwGRHhyUkSwcki3vCQiopEJEBIAYSZAACmJKswDQtfIwZhxlYFopgQILeFBCiCYBwQnQHgbImw+eOJr71g+6fwuIsKmWRDhNhABQCCymQChAyDMBAh+vKiVqKI8ILSNHIwZVxmIZu79HhE+/cMUQDAPCH7pZiHC5oPP9TcfPOn8SkGEW0GEOa8XEdFVEx4MAISZAGElIqLK8oiQGTkYs/GHvBKNSIDQEh6kAIJ5QHCbl0/mAgTntxoRBAhXQYTjIxDh6RIQgfchAAhEhQDCIoAwEyCkERGNji8xsDWWcZWBaHR/OUQEAMEwIHgwOPS80EArBRGOggjlDOAmGgsRvt8HEKYGBL/FiIgqyyNC38jBmI0//spDtC4ivJ4CCAYB4dBz7trDiebxYCQiaCc0g4jAlxkABKLZAWERQJgJEOKIiEYHIrA1xltoidZJeNASHqQAgh1A2HIeD04NN0SEQ37TIsKozzuCCBWNp+OIxkyA0AcQpgYE3glGZCF/nYF3IgQ1/tJDtE7vGyICgFA1IGiHn9de0E6NiQgaiBDWiGgSQOgACGMAAp9zJLLf8OsMsdYbbqAlfkYOzgxAIJoIEQQIKYBQISAICrbc+Q235Y4XLkOERNNWAUKZiLAwAyJEIMLl48VmRBMmOEgAhKkAwa8dEVE46fC6qHWuf+gH7s//7WfuLz79i/Pb8+hvz+9Dj/3ByiG7zgMQiMZMgNASHqQAQvmAsPWOxG31eKBNhggnQYSwlkRENCkgLAEIUwNCNyKiwFo+09HcenunfigKGvwuQUP7s7++hA0f/vwfrRzIQxuAQDRBwoOWNgAQSgME4cEp4cGLfqsQ4YUhIpwqEBGe0Y4PtzYibJgJEZ4AEdZfPyKiaRAhAxBGAALvQSCqWctneporcJeg4b3/nF3Chr9+JL+IDVYO7lbGy6qIpkiA0AcQSgAEQcHWu05rL06ACM8XigibxkKEp0CEYsbXgYimA4QugDACEHgPAlHNWj6TaK6KbdUPRw8NDb5CgboSzZAAoQ8gzA8QrhMQXPexl9xWTYBQESJoRSDCfhBhzPFZNaLpAKEFIIwABN6DQFSz9B9uCFvrCsX7//NXoV+h4Acm0YwJD/oAQqGAoP9b4t5177fdto+/JEAYbn1E0DwiaBMiggABRLAzrtURTZn+rdoHEKYCBOCSKJgkflaAYB5XKG7+hx9avkLBS2OICkQEAKEYQNiu/993P5AKD17xWw0Iw6cRJkeEzVdFBG0tRFgqFxGuAREuDtgmmh4QOgDCVIDAu1eIgklvPrVy6K9i+qF61SsUf/s/vwcPiAJJeNAHEGYCBOHBKeHBd922T7ziN0SEl9dFhC2zIMLy5IiwcUJE2FAMIlg54M93RDRTgoMMQJgYEPh8LFEwSfysHOat7+IVihs/9XomAOgNt6Ilw+VjwEHCtQWi+SU86AMI0wDCEA8e/J7bdverwgNtVkQ4PD0ibJoIEUZ83vESImgjEeFJEOHt42VmRLMDQhdAmBgQ/HipOFEQSfysHNAD2kq0TkKCzqrFWoevLRCpkhABQPgTe3e2JUW153E8Cj2KrUKJoKKANTDZ3Rf1Bs1dN4pQFLbH00swFQUBhSymou3utXgDLvoB6hFQcB4oFVCGglKKSRmKqQC9qUeI89sZ/9hnsyMjMyKn2pHx+631XZGFHs/NWUfiQ8TOdIAwC3/fHODBk2+eAiCcJCLkFxFGPI7j6gWELgJCTYDA81c4LhNz44Y8a/EJAo5zfACEYQJCIkAAHvyAp6vO+U+uPyWAUA8i/JgIEWbWjAhfxiDCF8kRYVWtiJCL8xAICBzXGEQYIyCkBgR+hSzHOT9InyM35FlqwuM4LhMDHgwTECoCguDBuD9rwyg65c/SiIBraxABlUOEbxqMCJ8REZLF38BzXINeYyAgpAYEfrU5xzm/nB+gWGMHPI7jMrPFQAQCQgwgIByYKHiATERQpUKEYygxIiB5nSEhIjxCRCAgcFyGBjzoIiAYgMCDFDmuTYabYUduyrMUX1/guIwNgDBMQLAAAT/P3nDan/3WGX8WiiICyhIirGkhIrT31zvyHWSOa+BrDASEVIDAb4HhOOc3MDriyE15VuLrCxyX0QEPigSEI0jw4K1Rf3bhLK4oBhGQiQgoOSI8Xg4RXm8xIqwmIhAQOG76BjwoEhAEEHiQIse1ydy4Kc9Swx7HcZkdAKGQe0D4m+DB22NBQAQ0jYgwEvRackT4CxGhmfHbgjiucYDQR0BIDQgFj+M4Rzcw2uXITXmW6vc4jsv0gAeF3AICrp2FM37n27+iX5IjwvokiHC8gYjwHSoBgvOI4LUbInAc19ABDyYICKO+x29i4Lg2GL+BoZb4JzMc1wZTiJA3QHhqwwn/6U0X/c53FB4EAQ9wVYCQBhFOakR4MjkiIBMRFCCovq8VEZCNCF9VRYSH6kKEQ3lABB5gxnGNB4RhAkKq32vzq2Q5ztlB+By5Kc9K/D80jmujARAKeQGEOW+d8Oduvuw/tfFckEYEFIsIJiCcfhAR1kcQQaoJEZCJCEdKiDAzp4gw/72zY7hOTRMg8N9zHNd4QCgQEHjeGMe1x/gNDL7HR6o4LtcDHBTaHRDmvHUywIN3z6Px3CJCUCVE+HTaEaFn8MrYiv/3O/G5b5oQgef8cFzjAaGLgDDqe/wmBo5rg/EbGHyPp8JyXO6nEKFdAaGEB+//5s8BHqCyiPCUnIdgIYKUBBFOBAEOUAVEOCqIIDUMEb5uDSK80lxE0HggmyZEIJRzXJPOQSAg8CvTOS77wyNCjtyYZyOO49p23R+MF9oNEObhnzX//Qv+nPfQuygxIiDrSYRaEeHx6UKE/tYiQkc9iCB48G8GHkwjIvD0c45r0jkIBAT+oR3HZX+u3JhnIx4sxXFtPuBBoV0AYV7hhP/8lvP+s++d8+ehsoiwcVwAIRYR0FnUcERI/TrDzGlGhBlNRAQbD6YZEfibdo5r0jkIBAS+Nsxx2R6/wjFtBzyO49p+ChGyDggBHlzwn910TpUEEVAiRECxiGCch2Ajwk9JEAHViAgDkiDCIykQ4eE1n9eBCIfTI4J9YOLmX4Y9Yw4gAh8b5rjmAEIfAYGAwHHZHr/CMW18rJPjcjIAQiGrgPAM/lkvbL3oP7t5XKUR4RmFCJvqQ4TZBQUIaEOlJxHiEeGJBiPCzIqIgGpFhFdbgwjzNwEPZM4gAsdxTRsAYYqAwG8+47jsDjfEjtyYZyX+qQzH5WjAg0LWAEHhwQLgwfz3z/vPqTaPS4IIqE5EQGf0kwizG4UIb9SECAIILUaEVY1BBBMPHEKEKY/juGYCwggBgYDAcdkdHg1y5MY8G3Ecl7sBEPoACFNZAIRn3j4JPLjkz99yQQFCFBHMpxGSIgLqfCcGEQo2IpxCAghRRJASIIICBF2tiPBNBUT4MgYRvmgJIjyM/575m3/VeOAYIvA37BzXXEA4QEDg7705LrvDO/1O3JhnI/6miuNyOgBCH/BgymVAKOHBtsvAg4voQmYQ4QkNCMeSIcJ/TicifFYfIgge/Mv/3dd44CAi8N91HNdcQCgQEAgIHJfd4abYkZvzLDTscRyX2wEP+oAHUy4CwnPvjvoLPrjsP7/1kgUIOgsRkIUIT0cQ4ZxRUkRAWUWENc1HBPXP/VcDDxxFBB5axnHNBYQVBAS+Psxx2R0BgSfBchyXeMCDPsDBlEuAsOD9X/1FO64qPJBsRNCAIIiAyiDC00AEpBEBmYDQLERAPwEQHEWE1Y1DhEcsPHAYEfjvOo5r8ggIqeLXynKcUxsYnXLk5jwL8f/AOI7zAAcBIjgACAu24HBHhQfbLms8iCICru8jhQhBFiKM/wMRNpVHhDkVEeFsRUSYnQYR/iuCCJKBCK/biDCSHhHWthQRmoUHNiL0NwgQ+O86jms+IEwQEPj7b47L5ty4Mc9KfISK47gHEGE6AWHhlnP+i8Vr/gvbfkOXBREkAxGMbEQwIUEQYVwQAQEPEBBhHICQHhE0JCRHBHmdISUiII0IBiCoHkXTjAjAgy8tPGgqIhT4DQwc5/4ACCMEBD4BzHHZnBs35tmI4zjOGOCgD01NByAsCPHgg9/8BUgQQV0BB7hqREBbAkh4XpLXGgQPbEQYT4YI+mDFseSIEHy9IzpZARGOJ0SEH1IgwrfThgiP9H+FAxP/MPDAeUTgb9Q5zmsJIBwgIBAQOC57w5+oO3Fjno34pzIcx8UiQisBQT150FW87i/48HfggSSIoCshwiUDEVAUEaLf0rApggjoPNKIIGlEQCEgJEEE1FhEQN83EBG+ahAiCB78bzk8cBYRxjyO47CWAMJ+AgIBgeOyN7xT5MjNeRbi11pxHBeLCACEqeYDgokHV1QRRFiwDZmIsO0SrkhDwkVcEQABxXzVoyDCZkEEDQi1IIIJCKdbiAhHWo4IJiA8uvYr/58/unvAm8YJIkwlxQPU6XEc15IBDvoJCIk76HEc58gICAQEjuMaMgBCH/BgqnmAIHgwOOEv3H61hAcLkVwFEKRtyHitAVlPJMQighQgAkqECHNKgPBLakSYpRJASIYIRzOBCAoPunb8XvAcmHw7w0ilMw/QfuIBx7V2gIMVBAT+HpzjsjcCAh+f4jiuYQMeBIjQBEBYuFXjgQ5wIFmIIOF8BKQRAV1KhQjzS4hwLkCE95IjwlP6TIQIIkgaEZCNCD+XQwTUbET4uhGIADz42h08iELCfjSMRuRzgXDAca2fAEIXAYGAwHHZ28Bo0ZGb8yxEQOA4ruqAB32Ag6lGAsLCLeN+984b/sId1/xF268BD665gQgbYxEBVUGEDTGIsD6CCMCDuhDB/npHqRoioP50iIB/BvDgint4wHGckyMgOA4IKz/u8jiOs4abYkduzrNQ0eM4jkswwEEnGmsEICzcOu73AA8W7biOrkk2IqAQEFQfWGcjTM+TCIIIuCZHBHQClf96R10ZRPinehBhoB5E+Nz/S4gHReIBx3EEhCYAwoQna+HTWmPGa14HUYGgwHEEhLSt8DiO41IiQj2AsGirevLgpv8i8ODF4nULEdB2ZCLCdo0Icv0dBYAg2YggmYhw0UKE8VLPxSECqowIqIACQJCqI8KTb9aPCI/VgQiPpECEmeu+8buJBxzHpQeECQJCspoIBp2oHw0nPHR2TIChz+O4XI6AQEDgOK6piABAGKsFELo+vOz37AIeFCek60EKEaQIIgAQNCakQgTzSYSwC6pmIQLwoD0QYea6b4kHHMfVCggjBIRkNfrVBFTUB8zW3pTAQz/Pk+HyMwICAYHjuKYOcNCJxtIAQu/gVeDBLf/FQcGDpIiwA+GK8LMCBAmAsPADpBEBARAkBQiCCQoR5Gohgk4jwvkGI8IpJIBgvs5QFRGQfR5C9HUG1ChE+FKn/jNdxavEA47jCAiuA0Jwk38ATSC/SY2gIl914Np7BAQCAsdxrUGEd0+PJQAEAw9u+F1hxRsGJsjrDGHm6wwABITPKIoISBDhwygiABDs1xqQiQjI+prH1IjwtqQRASVFhDfTIUL9ZyJ8E4cIxAOO4wgIrgMCbuJRAR3Urya0tgkBi36P49pqBITkcRzH1TEAQifgYKwSIPQUryg8ABrcRDfsyj6RsEg/kXDNLBYRJEEEM/1aA4pFBFwFEZBChHmbyiICikEEFIMIUmpEEEA41jJEwNdCEg84jiMguAYI1gGIDsWDGLk22sDoASduzrMQx3FcnQMcCCJYgCB40K3wYOfNoEF1vaGuJihUfq2hWAURtteGCPY3NShEeN5ChLmCCJICBCSA0GJEeMJCBGQighSLCACEeERQf3/34DXiAcdxBIRpBgT7AERHsMDnQYxcew/fq+rEzXkW4jiOayAiGICgnzzo3imAINfuBzDBQgRJEMHIfiJBI0KphZJGBGQjwoJUiDBe6pmaEOEsEAGlQgRUKyK8ng4RZj6ICPj7iQccxzUUEPYTEJJV7gBERzDA50GMXL5GQCAgcBzX8gEPOoEHYwh4cBVPHtxGt5AggtRtIAKyEEFdJ4KSIsKOCCLoooiAEiOCKjgTAYiAcA0hAYCA0iACah0iPPb6SNBrNiKgBxFhinjAcRwBYRoAYc1RPzwA0ZGbfp8HMXL5HQGBgMBx3LQMeNDZM3htqmfXHQ0IFiLgcxQRugNEkCbMgAplEKGoEUG6YjyRgPBqg4kICyUgQlDMmQjJEWH8QUR4px5EOFkBEY43EBG+k0JA+MZ/ePUXxAOO4wgIrQCEtSeBBj/63qqvfO/lQ67c2Ps8iJHjCAgEBI7jpm3L990b7tkNOBBA6LEQwQYFQQQDFG6gEBHkapyP0KUAQXcNmKC6igQSYhBBAEGKQwRUCRE2JUQEDQiJEAGVR4RZyRHBPg+hOiIAEGa8fNj3Vn4yhfi+KsdxBIRmAEL/z763+ojvvfKZKzfvrsWDGDlHRkAgIHAc1/ItK+HBHR8BCIIACNKt8IkE+Rym4MDuhsp+IkEAARmAgAQQkH02ggRAkAQQPjQRQXUpKEAEVAURNCBoRJDiEQEJIihACDvdOkTAeQgaEdZ9F+DBf3yiIiJwHEdAaBQgrD0VvJqw6pu8P2XAgxi5jG1gdNiJm/MsxHEc12A8MBABV0EEqVtddytEQLGIcCPMeiJBKqrrdVyRIIL9NIJGhB0CCQYiSIIIUhQRUHpEmLOxDkRYnwIREAAhNSLYeKBbeWgK8TdsHMc1AhAO5goQ1v7sd6z+Hk8ZfOHKTXi7xIMYOVlrAGG/EzfnWYjjOK5uPLg73LNHYcEkumOlEUE+35aMJxNQj0IEXYgINzUidMvTCN0aEpIhggCCHLIYiwiSQgQVAAEJJARpRBhPgQi/1IEIJ5AAgiACqg8RAAgzXvlU0MDukO+9DER4mYjAcRy/xrEqIPQf871Xv/O9lz915WY7D/EgRo6A4Ej8zSLHcbWed9C5bOjeSO+eSb83BIQ9aHcsJsQigv1EAoo+kTCIYhHBPhdBpQAhggi4WogghytKBiJciiICAiDgWgkREBDh6eYgAuAgHhGQjQiCByMaD2IBYSURgeM4AkJZQBg46XcEByC6cjOd93gQI0dAmMZWeBzHcSm3fKiEB2MKD6wEEVQBLPTuRokRAQki4BoPCTstRJA0IiA5E0H3ogEJUURQXUbGkwhIEEESRNABETZbiPBuPCLMmSZEeAyAIHhQDRDkSkTgOI6A0LH2hHrKgAcguh8PYuQICAQEjuNcXgkP9hp4EIcI8lkjAq496hpmQELvLnUNszHBRgRJEKHbQoToaw1XpStBBiIssg9YRDYiIBMR0Hl9NoI8iZAEEVAdiPCmjQg/+U8mQITHAAiCB1U6JBEROI7LKSCsO41XE370O17lAYgZjwcxcgQEAgLHca5s2dDdzqVDd4EHd/2gSZ39swCCdMcoigi9UgwiIDyRsBPp8xGMQkRAGhAG4xEBVwsRJBsRUCwiIBMR5m3C1ztuikUEFIcIZwJEeCs5IujzEKogwuN//VHjQQpAsBGh4HEcx6UDhImsAMKMgRN4NeEHv2MVD0Bs08KDGAs8iJEjIDQu/uaQ47hEW7rXxgNprwYESWOCnYUIxrUMIvRGEcE4bDGCCLiiQZUAgiCCpBEBmYggGYiADETANQEioHmbYxEBpUYEFIsIqBIipMUD9O+H4hDBJyJwHJcSEHyXAWHG2uN+x2oegJjTRlCRTydwBIT62u9xHMclwIMlewM8WKzhAKmf9woiyGdcdYuBBpKJCPJrNibcDtKAIIiAooggAQ96DEjQiIDiEcHEhDhEkBQgCCIsLIcIW1QmIpwXREB1I8KpmhDhKeCD4EFKQCAicBzXhoDw2imgwVG8msADEBkPYuTiAWGFIzfnWYiAwHFcFTyY1HgggIAEENBilf15j8YFGxDwawhXjQiRBA+iiIDPGhGMBBF2aURANiJYkGAhgmoRAiIgQQSdgQjGVz2iGES4UDMidNaJCOrQxJkD36bEgxAQiAgcx9WNB10uAMJDr530Z6w54ne88rkrN6vM/XgQY65HQEjTQY/jOK4iHkwCD+7ppw4W4zOy0cBOAEEy4WCv9RlogOIRQVKI0BuEz1FEwDWKCKjLfqVh0ECEokYESSMCMgDBQIQFQYIIKESErQYibLqANCKYgFAjIqAqiKBeW+hYeUhgoBZAICJwHFc3IKyYFkB4/Yz/EJ4ymLH6Wx6AyBrRGDrAVx3yNAJCmkY8juO4MluyJ8QDhQH3VAICISDIz9Gq/LVJK0EEXHsFE+RqvtYg3ZKkXbcikNCNeixECM5ICBChGwkioOqIsOjDoGqIoDIR4ZlUiIDs1xkKyRHh8TeO1o4HGhCICBzHZQcQ8GoC0ABw+uqXrtx0svaMBzHmYgOjfY7cnGehCY/jOK4MHqAxuek3AKFMQ/9AgyXy2fxrS2xAGJpUv4YEEyIpPJA0IgQHLS6OIgISRNitEcF4rUEAQQdAiCACAiJ07UAhIgAPKiECshEBaURAISKcDxABxSLCRhMRzmpEQEkQAXhwTONBfYBAROA4rk5A2HB+fzMB4eF1P/kPlV5N4AGIjAcxcg2eIzfn2YjjOK4MHsgrCFIcIAgaoOAzks/65xARhoKWSAIIFRBh0oIEdb2twudbkacSelCICL0GJAARgAlB3RIAQYpDBGl7gAkIgICsJxHSIAICIownRoQ5cYiwQRABPfG3evDABgQiAsdx9e2Rv57ZP/ONMaDAr4CCc3UDAv55/sMDx/Bqwteu3DwyxoMY23au3JxnIwoax3GlLd59R+NBBBBCFAiykACf5SqZfy144sAGBEmBwRKEq/UZ7Qkxwew2inu14WaQhQgoISIgGxGQIII+YBGFiBC0DcUgwgsKETZHEWEuEkBQCSBoRECVEQGHJgIPDtePBxoQiAgcx9W5/p9GkG82Y+CE/9C6k/g6xVF1VgGeKBhTKSwoCwiPvn7af6gfTxms4gGILHPxIMZMb2B0ypGb8yy0wuM4LvcDHvShqcVy5oEFCLolOo0EKburrzoNB7gOIXUte05CBBGMzxFEwFUQQVcBEVQmIhSvGoAgRV5ruOwv0l/1mA4R5lZChLdtRBj1n9KIcBrfuqDxoIGAQETgOK5uQBhDfvJ+xlcsnvBn9P+AVxO+9Tt4ACJrn3gQY+aGwwEduTnPQvwqR47L+UI8KKEB8EAQoTIgDNXeUinyNELpaiHCkIELChCQDQkCCLgihQi6EBEsSLARYWeACPgsiCApRChqRMDVQgRkIwKKIgISRBBAUI2j5E8iCCIAD35uLB5oQCAicBxX3xLDwZoffe/Vb32PX7PI8hEPYszECAhpGvY4jsvtTDwQQJBCOLDONNh7PwYQ7kc/70NDVvuAB/GIIE2qqwCCAQqxiCAJIphPI9iI0Bt9pQHX60H6aQRJEAHJaw2xiIA0IkjhNzRcfBARNsUjgpyHEIsI+MYF9Sd0CgLcAQQiAsdxav3H+yqiweoR31uFswxePuzKTR1jPIiRM4abYkduzrMQv8qR43K63l13+pDggQ0IGg8kAwf2ojKAsHTf/fCz/HwvyMAE89f0tYQG4V8PEGGpiQlRRAghQT7fxmcTEeSVhuhrDZICBOO1higiaEjoNhABeCAFZyKgKCIgExEWBoiALqhwsKLxKgOKIgJSiLBxTKURYfabJwQPPq4DD5oECBoRDhOkOS6v6z/e/+BTBkfxlMERPGXwhSs3bYy5GA9idGZ4LN+Rm/NsxHFc7ta763aAB7sFDyRAgQaEJdEnENB9nYCACQgo+Gz8LOHXjM/IwgQTGO4aTyfgs74KIAxpRDAxQRBBshBhsSAC0oggaUQwIaFbQ0IUEbo0IkjxiGCcjWAiwoVUiDB7/ckQD9wFBNXKw0QEjsvr+o/v99b8IE8Z8GsWGeNBjFnbwGjRiRvz7MRHaDguR1N4gAI8QIstQEAaEFAFQNAIIJ915s8RNFiGq/FzXAEilDBBKvtEgg0Jt9U1ejaCIAKuxiGLsYgAOLAR4ar5OoOUFBEuBsnZCKrnt8YhAgIizBVEmL3BwgNUGx40HRDQYSICx+VpeJ8bFdAwmnLkBoyxdokHMbZ0+GYBR27MsxLfXeW4nKxnZ4gHk74BCCgeEJAGhKUKBjQgWECQsGWoGiIsM3+OIgKuSGPCHVQWEzQkCCLoKxABWYiANCJYByxaiICuIIGEsoggWYiwIAUizMKBiYIH2QEEIgLHtfdwM4OKaMSRmyzG8hAPYmwBIPQ5cmOelQ54HMe1/RQeIODBHT9o0gQEZJ15YCWAIGlAiO+/o1iwzPg1fNZ/D67y1y1AiEKCviILEmKeSDAQASVDhF3GuQg2IgzaiCCvNCAggpQMEV6IeZ1hFs488FZ+ImBglRoPWgYIRASOa8fh/Ww0jCYcuZliLO/xIMZmzJEb86zEgxQ5rs0X4kHPLsEDAQRUGyDsM66R/hBA0GCA6x8CBJJ8NluqP98TZCj3VMJdFEEEKxsSbqMAEOQqBYiwGJWu4QGLqFcBQinjcMWdgggIiICrIIIEQJAUIEgBIqDEiGDjgV1KPGgpIBAROK4dhvevUREddORmiTHGgxhbAghTjtycZyOO49p23YO3NB6UBwSkAQElBQT76QJBAACCygKCP6T7+lq1fSEmSDYi2NmIMGQhgmQjAgDBTCGCPJUwIRmHKwIR9Dc1aETAVSMCshABaURYVAURZq0/GeJB9gGBiMBx2dnKj1egA2jMkZsixhgPYmzx8KfqTtyYZ6QOdW4Ex3FtN4UHaAqAgBvgeEBAVQFhaQwgIBMMgAghICAbENByqRIeLLcgwcQEuaK7UlVEwOcAEZaamAA8QOURYXccIkiDSCFCmCBC7CsNaFH4WkPMwYpz3jpVFQ9QCjxoOSAQETguK+MBiIzlIR7EmBIQhl25Oc9CAIT9HsdxbTXAwQo0hXwAggQ42BUDCGiJAgSkAWEoDSCo5HUFAwtMQFj+kQEI+BxigQaGjwQQooggP99DEUSwMGESmZBwx8h6ImGPuupzEWIQAVmIIEURAQkiIEEEfcCiechigAiLBBGeLmg8aD9AICJwnBuTAxD5lAFjuYwHMSYAhP2u3JxnoQ6eg8BxbTWgQQH5KgEEHQABxQOCIIIAgmQDgn0oogCCnWCBAQiSfF6GFAzoz6Xuy3/OfirBQgQJaIBrUkSYtBFB0k8joJsohIQbyEIEVB4RFCBIBiKU2o7CJxGsVxrmvn06MR6ghHjgGCCUIiJwnDUegMgY40GMzoxf5ZiqDp6DwHFts66i4EEsIISIEAcI0pDqnpQeEJabfWQCwp9yjctEBg0HxmeNB+qz/rkCIuBnQQQTFEJEGNKQIIgQhQSkX2mwDliUNCKgxIgAPBj1OwI8yAcgEBE4jgcgMsZcawIN8yDGgdEuV27Os1BHUM7/R8Nx2Z/CA+RXAQRpUoWb4zhAkAxAWAY8QCYgoCSAYPZnVUR4KYIJ9/FrgggGKmhA0N2Vq0YEAYVJnYUIuN4Osp5GCIoiwmINCQiI0LsThYiAIohQSiGCJIgw9530eIAS4IHjgCCIgPgIJcfxAETGmHsdRMV8HsToyM15FuoIOuBxHJfZdRVvFpCfHBDuCCBIFiAsNQFhrwkIyAaEB15V+DNy3oEJBi/hM9K/9pKBCi/9jwYEZKNCLCLIz7FPJFRCBOl2cI0gwk25mucj3JA0IiCNCEgQQacRQUPCvI1nUuOBVAUPMgIIASKMERE4jgcgMsacbkyAMicH7vObGNICwoTHcVwm96LgQWpAQMADyQIElQACsgBBsgABCSBoMNCAgExAABaUfs0CBFX49/whoGCiguCBFEWFewhXAxGW77MxYVKeTJAEEZBGBKQQIeZphBsJEAENIv00whXdMxvPhniQb0AgInAcD0BkjGWpHBzEyG9iSAcI60rxIA2Oy9gUHiC/dkBAISDsMZ9AkCoAwvIIICABBI0DFhAYgIAMTEACCEgDgvlZrveDK7IBQZIzE+xzEu7iqhHB6A6yAGGoIiKgSoiALEQoVS8eSPF4kEFA+Dt75x9b1VnG8RPNYmIWvd2G41dhm2QIFNb94RJjzIw/wgBhHWEMMgZVNpn8rA5mltJSiDHxD4PxD42JCRqNLvthydKCG2oJqPwI2iiJ0WxSGKWlLayayEwWk9fnvefp07dP79ntvT333vec8/0mnzzvee9GymXJeD953udAIiAIBiACAJJKb/oGMa690OLLAd13xgUCXueIIEnK/D2hPJieQGBYIBBuBwIxSEQLBEJdWRgmWBioDgMtDYozpNaCKxFYKgiOVAjlAVdGXWsQ1JWGybMRiCISQUSCDFgUiZDbfHZMHkAgQCIgCAYgAgDSREoGMeJNDOUIhN4AQZBExMoDwsQgEASSB4wVCExxgeAMSlQCQXAFwggzPInF+7kW+kxJBE20RLDrUCIsciRCnsISgWqkRJBOBGHvZYIlQh51pYHIPSXyoDICYXnCBYJIhC5IBCRzyX3lry0fXHMMVxMAAOlhVXdnsOZ3CRzCuPZCzpcDuu+EAkFI4B82gmQr8/ZcbiZM/ALhmhYIREkCgdACQYuAEYtIhMWErPcz9Jzfz68F3htynrVEkG4Eru6shEFCSQRm4QvXCsiEfvq9XiVslQGLVN9mRCIQLBFEJFwyC7gboW7zuTF5AIFQBBIIkAhI5nL/t0wPYer3jZi6rRfNbU1v+HEAAACAUvjS6yZYc9IEj50bO2MmdPAiDQb05ZDuMxMFAt7GgCA+Z97uUB5USCAwSiAQC0sRCMSiYgJhP2HXds+uCZIHjN0nZM37UmUdSgSuTIRMGCS48rUGiysSWCJQdSWC4MxHeFtwJQJVkQgEyYPzIg/iQ8uDFAmER7ogEZDMZUwguNzbdsvM2P6Wuf3Jc34cDAAAQLOyi6TBCRM8epqkwXn3bJl4gYBBiiULBLyNAUF8jZUHhEmqQFjsCASWBrwWRBowat+hVT9bhmxVEsHu2cqwRJBrDSwRFhFUmUkSgat7tYEFgsXtRmCJULdF5AEEwpTpgkRAMhctEDQLOt4zs78xYD6y5c/oTgAA1PpqgqGrCSZoOqPPk6kSCBikWIpAEJL6B44g6U397sstVh5UWCAIJQqEgm9cWEyV4CsKLAFEIESzJHJvWKFodesQywPLdUbNSlBXG5RE0CKB0RKBUBLhjtjlgaDkQUoFAiQCkqEogVCU+S/8y9y57e/mQ+t6/DhQAADSy8rXwqsJj57SXQapFggYpFieQDgSIAjiTep39R0hgWCqKxAIJRA+QfKAiBAIhBYIYxJBBALTqsUAr9u4hvBa7bUN28rQmuWBs3ZggUDVFQguIhCEqUgEOxsh5H5bxyQCkdt0RuRBRRB5kHKBAImAZCSlCgTdnTBz95X8VYcPrO7248ABAEg29mrC6t+YoOkP+syYEYFA8eWQ7jMFBMIogb+0IUhtI/KAMDUQCIwWCESkQCBcgSCMEFoOqGcWCITsqTVXRvaGuboSQTMksESg6sCdCEoiUCVsDWUCD1vUEoFgiVD31Jmxgz4EQll0QSIgmYsIhGmCQYwAgLgGIDKZFgg9vhzUfYUFgqY5QBCkppnL8qC2AmGgZIFARAsEwX2+EdI2wthnWavPlEAQlERo050JQ1RFIjg4EqF1okQQJnUk9FucIYtXSR6craA0EFgeZEggjEsEvCEISWXiEggYxFg5blv9mqlv/q2ZuemEFz8PABUcgAiBwAKhw5eDuq9ECITeAEGQWkTkAWH8EAgDSiAQMQgEQSRBKAoa2mQdVqJBnulzhyWRDPN1B4IrIRJBsPJAUBKhdcBWRiQCIxJhTB5AIMQrELREGCUaAwRJWeISCBjEGC8ffqzL3Pd0j3m49YJZ8+2L5gvtvVYkePGzARDzAEQIhAICocmXg7qvjAsEDFNEEB8yd2coD/wSCAMkDwYnCIRF0QJB5AHBcw9Ut4ESCC4NFlmrvfYRWbNE4D1BBIKCPhOJ4GAlAtVJ1xoGqRK6KyGUCELd5nNVEQfC8owKBEgEJKWJSyBgEGP80sDF7tsuhIXPnjINO35vPv3N8xb7mf33vPj5AZg8APFEoQGIEAhTEAg5Xw7qvjIuEDBMEUFqGJEHhEmKQCCKC4SC1xUIJRAa2rky9KzXVEcId4+fWSJQFakg3QoiEAjVjSC02sryQIiQCISdgcDyAAIhPoEAiYBkLnEJBAxijFkaFEfEgv41P7ruuLlrw+voWAC16DKIGoAIgVCGROj15bDuI0ogaHDvFEGqlDk7L+Xlgd8CgRCBwEQIhCXFBALRoASClgaErDVLnbWSCYTuTBiWalkisEAQrhN8tcEVCiwRbLXXFm7fcKoG8gACARIBSVvGBIIvZGEQo5IGZbPi0F90N4JAz178XkEGGB+A6MW5Mk0C4bAnX6SXhAIBXQgIUqOIPCBMMgQCMSWBQCiB0KAFQogIBEGeb9LalQW0luru670RRnUniERQSEeCkglKItC1BZIHp2sgDyAQIBGQNMY3gZDWQYxlSYPyxQJ3H0g3glx/oLUX3wdIMOMDEL04R6ZZIHzWky/SSyYKBLzSEUGqHJEHyRIIgxMEwuJogeC+ptEKBEIJhHauIgFu2srctDhigKrmgLuWygJBCYUiMoE6EgglE1giOPIAAqEyAgESAclcfBYISR/EWD1pIMjARd2NQD8HZiWAaQ5APGkHIHpxdsyGQKB48kV6iQiEaDoCBEEqkjk7QnmQTIFAiEAgogWCRd6wkJcISiAIIhAIXjMiBuRZZIG7FpRwcEWCZljPSuA6ZBpYItDcgxrKAwgESAQkrUmKQEjKIEYlDWrGQ8+dtV0HmIMAkjoAEQKBBUKnJ1+md4QCAV0ICFLFiDwgTLIFAiECgSguEByiBQJLBEcWiDSQ9TKq8hyueY8QiaAqS4SlmsjrDfb3NDgmDyAQfBMIkAhIwpNUgVBoECN1J1R7EKNcE6BZBJAGINn4NQARAoEFQosnX6Z3hAIBXQgIUq3M3nEpR3RaeZAOgXDdFQhEYYHQUEAgLCX0bAMtDUQWMMuk8lrQezd4jypBVcsEJRHcjgSCKl1d8EgeQCBEssJKhG5IBCRxSYNAiBjEyN0JlZUGdF0A0gAkF38HIEIgsEC4x5Mv0ztCgYAuBASpRmZv/2eO6CWBYNIlEIgyBYKIgwOEEgjSbeCKA01HoT39z96gPZEJCt2NIBLh3YcOXtuVW3fsFQgEzwXCcmJFNyQCkrikUSBEDGKENAAgOQMQIRAcidDnyRfqFSIQinM4QBCk7MxieUCYdAoEggXCkmICod0VCHxdYaxTIBQILADeUWKA9whaM7zmz6VO2hOZUBARCAfyP+u79+69uiWgXBoxM+oeP/Zq9eUBBMIU5QHTDYmAJC5pFwgKdxAjpAHIBskcgAiBgNc5xiEQhHsCBEHKkgezWB6kWyAMva9AWKqvLbBAsLhzDJaNCwTGFQPh3gNU5ZnXtGfRcoE/KyoTQnnQTvJgX//mgMMS4WNWIkAgeC4QLCtJIqzqbgoQJAHJmkDQgxipO8FedfBOGtCrGCENQJYHIEIg4HWOsQqEzgBBkLLkAWGyIRCGiggE9YYENeeAqoPIAlcgWBxZ4FbmoCsURCDwWhNKC+5CuHXfvv5NAUdJhLvvWH/8V9WRBxAIU5YHWiA8QqwkVnU3BwjiebIsEPQgxsa2frPx+31m7Xf+VjNp8OCeP5qZm074cRAFySF9AxAhEJREGPXkS/WG0gTCnywp+g8CQaonD7IlEIZMQ+swES0QBBEICiUQLCIFXA66a4V8flMq4XQlMGH3w62PP3/tyUBFSYRZd64/3llZeQCBMD2BAImAJCcQCON88QfGPPOiMbtfNWbHL/5jnv7xgFl/+E1IA+An6R6ACIGgBMIRT75UbyhDIPQGCIIUzcyvvZUj8vIgmwKBJUK5AqFDCYQIlCyIpJEYlwhcGfo5rix4fmBjwCkiEe6464njnRAINRYIy6MEAiQCkpxAIEwUCFt/OZHtL5NQeOk9s+0nN0zzD69AGgAMQEwOqRIITZ58qd5QqkBgWgIEQYrKA8JkWyAQVh5ECIRlhH4F4wM880C6DSIEQqNIg1FHEvBaGBVxQJXXLvnOg8v1X7/6+UCliETIzXji+NH45QEEQunyQAuEGkiEFUdzRDNxmOhhOokWArODEAiE0gWCRroTtv3s3+bLP+o3j3/3H5AGAAMQ/SVFAgHXGOISCKMEXuuIIEXkAQQCsX84WiBYIgRCkesKjhAYFXFAVdb8zLyjkDkJffOe6/9cwClRItTN2PDroxAInguE2CWCSIMmFga9hCnCYQL/z0QgEKYhEDQ7XyFe/K955sgNs/F7b0IaAAxA9IvUCQRcY5iWQBAwUBFBVGY+Oy4PIBAcgUAsjRYIjAiEPK5AaOTKUoAFAnNolKrikAiF8HNaS+V9GrpI8uDawwGnXIkwd9MbP49HHkAglCcPtECIWyKIMGgkOogewpRBLyQCAoEQj0DQbHvJmF0v/8989aej5lMdfWZO80k/DqTAfzAAEQIB1xiqJhAwUBFBCsgDIi8PIBAKCQTLyBQFgrquwKiuAi0QeM1VrR+UvfwbGy7N3zvwmaDM6JkIn9xzuh0CwXOBUJJEEGHQQnQSo4SJAcwQQiAQ4hUIGvn16veR4d160b4m0o+DKvAHDECEQMA1hpoKhD5cZUCQILib5AHRSwLh/+zda4ycVQHG8ddeYuh1FYrEpDAtmBDQMm1DsCJm/aS7W5Z1bYFYoVOgYPyAw7XlVqa2MSRqNmpMBJFR8RKNurtlyxYkjo1gAtZOAoVeQCb6QZTSvivgjS8vz9np7L47ex92Zs857/9J/mm20YTMtOzOjzNnIgBhfEBYdd9xNSYgCAomAISdqvyrCmOdjGFBDAlirY79qgxC/OWcO167NJjBGUS4JPuH+2vHAwChdjyoBoQaEUF3FaiMyquSiupULmAMQKg7IMRbcd+/o2VffiVatOlZO17AEhcg+p+XgNBlyYPrOiCYugLGErwPfenltPCgpCIAYXJAUOMBghoJCOkhQIg3MRaY0rsqX8faNRClhQepO/+xLqjDhAinf/yWp3PTxwMAoaGAYGpRbX3Z6nsMGlQpYAxAaCggVPfhW/8eLdl8MJrf8aQdL3CJCxD9y0tASFvy4PoACLyVgSV2Bg9UaPAAQJgqIKgdx8cFhNFvXYjfdxAHBFM1FAycwoJy+rr8axkUXlmx7Z+XBHWcEOGMdbc+vRNAmHY14EEtgKD/Xctjqlf1zGbpgDEAYdYAId45dw2Y0wm81cH1uADRtjx9bdh5oGTJA+wDIPCpDCxxO/OmMh6oCECYPiCoMQEhPTEglIEgBgjx1ggMYmigBqI1Snjw8sptr18cNGAGET5x2zNfnRoeAAj1BYQ+ZcBgjx0/4A6XCRgDEKwAhHjn5d6Jzrr5r4OnE+ZcvteWf18QFyC6mLeAkLXkAfYBEPhUBpaoGTxQg3gAINQOCBepVfe/UQUIsQsTc+Fgq6sAIZ6QYBgQToHB6sHKXwsUXl65/fjaoIETIiy7VIgAIEy92vEgDgjWggH3IDAAwQFAKMdFjFa3/glzyoALEO3PW0BIWfIA+wIIpmzAmOer4IGKAIT3CghqHEAQGKgKIKgJAEHFAUFVfm/g2Ll3vbE6mIUZRLjsjj/uHh8PAIRYNeNB+f9rwKDXjh9uOYHAAARvAIGLGC25APHyp7gA0b08BYQyInRb8iD7Aggm3tvJvF0cDwCEmQMENT4gqNWVYoCwplz5bQrV7R4EhKPn3X3iomAWJ0Q40yACgFArIHgDBtyBwAAExwGBixgbWFs/FyC6n9eA0GHJg+wTIPDRjszLxfEAQKgHIKgqQBAaxDNwMCVASO8aKHzknhMfCyyYEGGh7kTYORIPAISqJsADL8CAT2FgAIJngMBFjFyASEkFBC5TrBUQuA+BJWrLbjw2hAcAQn0AIZ0rNxkgrKm0q9LAUGt3D75toWf5thPLA4tmEMHciQAgTAkQfAMD3r7AAATPAYGLGGu+AJFTBv7mPSDkLHmgfQIEE5dEMS9m8EAN4gGAUH9AWG1OIagYIAgMJgaEtcP3HnSfvf2klSeghAiLPnn7M7uCzwAIozNg4DUaVAqVlX8+2VgDEAAELmLkAkQCELhMsZGAYOK/tDCnV8EDFQEIjQaEE+biRDWMBnFAWFsBhN1lQNDJg1+fvX1gaWDxDCK07nhu+7zW3reSDQiDWJAEMKiuK2AMQEgUIFRfxKjTCcm5iJELEJOc54BQRoS8JQ+2b4AQcqkic3VxPAAQGgoIKgYIKn7qIA4IqnJh4q/OuetfiwMHZhDhloeObDGIkBxASMwJg8lKBYwBCIkFhLEuYtTpBL8uYuQCREoQIDRb8mD7BgimUPFDE3Nqy7YeS6tBPAAQZgMQ1AhAUGVAUFWAsGvgl6m731wUODSDCLd+/+h1BhH8BIQ9vt9jUEv5gDEAAUCY5CLGBVc/bcu/s7gAkQCEKSBC0ZIH3DdAMBX5ZAbmys7YeiwjPIhMAIJNgKAMGsTS179I3fPWgsDBCREW3/bw0esNIrgPCIDBFErID1MMQAAQvL+IkQsQCUAYAoSMJQ+4j4AAIjAnZvBARQCCHYCwxuDBCEA4GceDn6+49+3TAodnEOH2h4/eYBDBPUBI5B0GtVYIGAMQAITaTydULmLkAkRypYQAQkI/0rGBgGDiCCezdmdsPTqIBwCC/YAgPPjZivv+8/7AgxlEuOMHx7YKEd62HhAAAz66kQEIAEIyLmLkAkQCEKYMCFlLHnRfAQFEYFbO4IGKAAQ7AWHtMCCo8Ccrd/x3fuDRDCLc+cixGw0i2AUInDKYgUoBYwACgODCRYxcgEgAQk2A0KRCSx54XwEBRGBW7fQbjmZUBCDYDQjKAMKPV97/v3mBhxMiLNmWP3aTQYTGAQJg0ICyAWMAAoBg40WMXIBIAMKMIULOkgfeZ0AAEZgVq+ABgOAEIPzo3Nz/5wQezyBC+WLFPW83ABAAg/oXKu7+YQACgGDPRYxcgEgAAqcQHAYEEIHN2uJ4ACA4AQjZ83a+874gARMizL/5wcObx0CEmQADZcUL66TE9zgGIAAIVnRW9jUuQCQAgVMIXgACiMAavjgeAAhOAELiLqAziPCVB49kqhChRjTghMEslgoYAxAABAtavv1NK153UGJKJCAk5hTCNAEBRGDOr4IHAIL9gKAShwdxRMg+dGSLQYTpAQKnDCypO2AMQAAQLAlAIAAhCDiF4BcgmIqK94qyuu6D1x8ZxAMAwQlASCwexBHhG7/525VLO/e+KkDgtIFbJfSHJwYgAAg2BiAQgBAEnELwDxCiOUKEOSACqx8e5FQEIDgBCInHgzgi9Dx7cv3Szsdf5dSBMxUDxgAEAMGiAAQCEMrjFIJ/gGAqzdnw53TA2MzBQZPKqwhAcAIQwIMxESG8XIhQ4uSBA7X2FYO2fu4/YAACgGBNAAIBCOVxCsFPQIgECKHqCBibGTwoqghAcAIQwIMJEKH3ubC9aRQigAd2ZUCnX4jQHwoRwHAGIAAIVgQgEIAwPE4h+AkIlbIBYzXuA9cdSQsMSioCEJwABPBgaohwRdPn+0ucPrC1PgMI5VpUWz9/rhmAACAACJS0Eg8IXp9CsBwQTPk5G7gXgU0XDw53CBBCAwYAghOAwIusGhABQLCwMh5UI0JXwBiAACAACJScEg4IZUTIWPJkJBEQTEXuRWDTwIOsigQIEYDgACDsOA4e1IAIe54LOwwiWPGimWJvX9g7HiIUFRjOAAQAAUCgJAQgnEKEkiVPSBIBgXsR2FTgoEl1qwhAcAYQwIP3ggh/Gvjcgo6+1+148UzD7RkNCa2DiBAqfqhiAAKAACCQ7/G9zsw8EJY8IUkFBN7SwMZd03WHm4UGJRUBCM4AAngwA4iQ2vLUd+140Uxjn0iI3YnQZuItDQxAABAABPI+ACGGCAVLnpQkA4Liox7Z8Jq2HM41nUIDAMEJQAgVf39nai09HXa8WKbx61V9lVMIlYpB2z4+6jHhAxAABACBPA1AiAFCypInJemAUCkXsMROcJBWRRUBCG4AggIP6oMI3IXgSq2PCQ8eV/tMoeLThhI8AAFAABDI0wCEKkTosuSJARC4YDGxExrkVGQCEJwBhFDxd7U+gJCx4sUxTRMS+iuQUOA0QgJ3xf7c8m0DVry4tAkQNj0aRZt/CiAACOR4AILPH+voASBUynE3gv9buuWltCoaNAAQnAIE8IBTCDRWrXsqJxLCYD2nERKxK/anVVFFAMJoQFjXFUWXfQtAABDI8QAEnz/W0SNAOHU3wkH+wHq4pZmXmlSXigQIEYDgFCCEH70XPOAUAk0OCXsjIUJR8X3Mx7Xvb1JdBg5MAMJoQNjwyPDXV/9wJAx89nvmZAKAACCQI/F9zOcLFT0DBHXQ1K04DurJhAYZVVIRgOAcIIQKPCiPUwg0hXpPQUJ/XpDAqTpf1r4/o0IVAQjjA8Lqrw9/ffE3h1Fg06Pl3/v0dwAEAIEcCUDw+UJFTwGhUk7xA5ijExY0q4KKTACCW4BwIXgwapxCoGlBQmtfKEjgsmCX176/WRVUZAIQxu+Cr43+vfUPVd7WMPR7woRhLNCJBKGD+RVAABDIsgCECRAhZ8mTBCAMdbC6cO6Gg7yv1KEtybyUUvkKGAAITgJCeCF4MDtr6Sna8QKYZqzWPSWdSsgEzJ2170+pbhWZAITaWvVAFG3MV74edTJBpxYqpxcABACBLAtAmAQRSpY8UQDCWICg5pYrzd14kB/ALN6SzS+mVF5FAoQIQHAWEMCD2VxLT7MVL3qpDvUaHOKHMpvX/nsDB3kVmQCE+rThEXMSIX5qwXwNIAAIZFF8r5pweoAseaIAhAkBQW00AQm2bXEcDhSA4DQghBfcDR7M+lp6Cna84KU6VVAdAbNnggOVV4NIACDU/2TCp7498vfWdQEIAAJZFIAwBUTosuTJAhAmBYSRkDB3I3ckzNYWX/tiSuUXn0IDAMF5QAAPbBmnEJJSSQHis7k4HCgAYbZPJtjxz2FjAAIBCLat80CTq29lSDAgVApVDkho3IQGzSqvIhOA4AUglBR4YNM4hZCkQpVTfB9r0AQFzaqgIhOAYEerHrDjn8PGAAQCEGyco29lABBGlFf8ga/TFl17KLP42kPFChwACN4AQlHxwsW2cQohiYW6cLErWP8EH2NcHzRoUllVUpEJQCBXAhAIQLB1Dr6VAUAYs6LKciphBtDgmkNp1SU8CFW0WAEIXgECeGDzWnq6LXlhS42qbW8kQDAVFG9vmLnTBvk4EgAI5FoAAgEINq/zQNGSJw5AqB0Q4nXP23iQy6qmhwYplVVFFZkMHgAI3gFCUYEHNq+lJ2XFi1pqUL2Cg33qiXihygfrn+SHuemsvZBSOTV02gBAIJcDEAhAsHmdB9KWPHEAwkwAgppXLlT5eVcWwYQxtvCLL6QWXnMoowpDaKAABG8BATxwZS09eTte3FLda+0zYDBOT5pKqktxX8n4aJBVRRVVAhDIhwAEAhBsX+eBrCVPHoAwE4AQS4BgClW3yqjEvogSGqRVVhVVJDwYDEDwHhCK528HD5wZpxCS0/p9kwFCvJLKqw6V3L/P7YVm1VWNBgAC+RaAQACCC+s8ULDkCQQQZh4QqiuqLuX1X5YFOmWgMiovMCipqBKAkBhAKJ6/DTxwbpxC8L/WxwwUTAcQqiuonPdvdWgvpFVWdaswDgUAAvkcgEAAggsrf7RjaMmTCCDUFxCqK8wXKKgO5ext2As2PZ9W2QWbXsirkuAgqrRQAQjJAgQFHrg6TiH4X1t/TYAwOSj8tlm5+/e+/XfNKqu61SgwABAoKQEIBCC4Mgc+2hFAqAMgqPkjC+dfVSyonMrMv8qukwqnfeH5ptM2Pd+ssiqvCipaMNQLgwEIiQaEonL3RQQL3mXvbnIaOQIwDHvFkB0XiMIqa47grd0gIW9mIBtuEFZZ+wZzBB8BD//SDPgClgxzAY7gI5By206GH0MytHFV9fNJ7wl6VY9KXeGQ2Y3ioKvqax+XSFAtIMz7Ou8udBTqNna+7obi+o/CzvVmqBnqhnoBC0ah+8cBBNU1gCCAkNI6w24kHxIgrAoQPi4swMLNINRb+3jTDR2Gmmufyio7rK3v3W6t7982Z3XX97+HAhJMuy/742EAASD8CwjwIIu1+huhcRQHXlVbcb5MQHjazoPuQoPQ51A3dNDY+dactVEdEFw1Z+2GutOuB6FR6P5JAQsAggQQBBDSXcT/QwAIKwWE0E3Z2o99erbBpA8Pup2296S7gAb3D9r/se9lv4QAAkB4BRBGv/8FD7KZWwgZ9qUEglUAwuK+LWqwuKvHjUP3L3ddBhAkgKDoAgg5/w8BICQDCGUfHnQ7be9pAAEgVAAIoxA8yGluIeRXcZYSILzQ1ZMAggQQlGwAoSJE2IrkgwIEgAAQAMKLgBA6ggeZzi2EjJrcPrgECABBAgiKLYBQISIcRPJRAQJAAAgAYREg9BqW79xCyKfp040AASBIAEGxBRAqRoReJB8WIAAEgAAQ5sGDOq3VP4jiAKy3tX0JEACCBBAUYwBhCYgwiuTjAgSAABAAwiR4ULe1+ndRHIL1ltsHAAEgSABBMQYQlvRTxTuAABAAAkCIBBDgQd3mFkLaFRcAASBIAEGxBhCW+FPFMUAACAABIKwGEOBB7ecWQpq1jycoABAAggQQFGsAYYmIsAsQAAJAAAirAQR4UPu5hZBmxTlAAAgSQFDMAYScX2YACAABINQWEOCBuYWQXF8mIAAQAIIEEBRzACHnlxkAAkAACLUEBHhgc0BoxnEw1n+qOAUIAEECCIo9gJAzIgAEgAAQagcI8MAeI8IgisOxXm/7EiAABAkgKPYAwnR5Pu8IEAACQKgVIMADcwsh1donAAEgSABBKQQQ3mnz5x1HAAEgAASAUD0gwANzCyHpti8AAkCQAIJSCCDMlyMiAASAABBqAQiHDTO3ENKtfLrxEiAABAkgKIUAwjtvjghjgAAQAAJAqAAQDhpmbiGkXXEOEACCBBCUSgBhJesMt0JjgAAQAAJAeAMgwAP7P4CwGcVhWc883XgJEACCBBCUSgDhueWCCAABIACEbAEBHtjPIEIvjkOz/qk4AwgAQQIISimAsGg5IAJAAAgAIUtAgAfmFkIWlbcPAAJAkACCUgogvLTUEQEgAASAkBcgbB7CA3MLIZuKU4AAECSAoNQCCFFshggAASAABICwABDggbmFkFvbFwABIEgAQakFEKLZDBEAAkAACADhGUCAB1YlInyO4gBd59onEzAACABBAghKLYAQ1WaIABAAAkAACCUgwANbDiBshMZRHKTrWnEBEACCBBCUYgAhunWGm6ERQAAIAAEg/AYPbHmI0I3iIF3H2scTLAAIAEECCEoxgBDlOsON0AggAASAUGNA+BMemFsIWVacAwSAIAEEpRpAiHYzRAAIAAEg1BIQ4IG5hZBl5dONAAEgSABBqQYQot4UEXoAASAAhNoAwji01TBrNNxCyLHiDCAABAkgKOUAQhILiAAQAAJAyB4Q4IG9/1r9wygO1rWovH0AEACCBBCUcgAhmXWGhwABIACEbAFhFNpomK1irf5dHAfszGufAgSAIAEEpR5ASGqd4UFoDBAAAkDIChB6v8IDW+Va/YMoDti5t30BEACCBBCUegAhuXWGW6ExQAAIACELQOg2zF6dWwjJ1z6ZAAFAAAgSQFDqAYQkN3uhASAABICQLCCMAx54acHimVsIy604BwgAQQIIyiGAkOxmLzQABIAAEJIDhHHIzxItvrmFsJzaxxMcAAgAQQIIyiGAkPw6w0OAABAAQjKAMAp4sNkwi3GtfjOKA3duFWcAASBIAEG5BBCyWPiQoTFAAAgAIV5ACB0FQPCzRIt7rf4gikN3NpVPNwIEgCABBOUSQMhmneFmaAQQAAJAiBIQ/CzR0phbCNXWPgUIAEECCMopgJDdOsO/2bt/HMXNOI7DltJHSEmVykfgCLTgFCgnoEiqNHMEbsARfATY2Z1lOi6QhDqVj+Ar5Eeykz8Ku8PM2PD69fOVPtKW3mJZ/Og13gAEgAAQkgGENvJBa8OaUwjdnT6oHgECQJAAgnLK99os98Mvy6gFCAABINwUEA6RRxZseHMKoZsW7wECQJAAgnILIOS6wIMyOgIEgAAQrg4IkUcWbOBzCuHtVXuAABAkgKDcAgi5L3BgAxAAAkC4GiA03/3skQXLYPPdNImb8KH21+kDgAAQJICg3PI9dwwLIJhFDUAACAChV0DYRh5ZsHw239VJ3IwPseojQAAISdxcKv8AggCC9YUIk2gLEAACQOgcENpoWZjltvmuTOJmfHDdn+AAIACEJG4ulX8AQQDB+oaEZdQCBIAAEDoBhENUFma5zimEl7d4AAgAASAIICjXAMIY93QaASAABIDwakBoo7vCLPc5hfDyqkeAABAAggCCcg0gjHlPpxEAAkAACC8ChEPk1IGNZ2mdQmgTuY7zLT4ABIAAEAQQlHMAYez7dBqhBggAASA8CwhtwMGqMBvb5rtJQjfuZTRLDDX+qdoDBIAAEAQQlHMAwZ4g4ddZ1AAEgAAQzgJCHYDgDQs23s136wRu0A9nHq+ok8GNxXuAABAAggCCcg8g2P8gYR21AAEgAIQ/awIPfFCapXEKYfaFa1vf/PqqjwABIAAEAQTlnu/FdhYRymgLEADCiAGhDTxYF2aWyimE5kLkWEXN9U8f3J/wACAABIAggKDcAwj2/GMNAAEgjAwQ6siPJJqldQph9cJrXUWH650+eAAIAAEgCCBoDAEEuwgS7qIWIACEzAHhEPlQNEvvFEL7huudRdt+r+/dCQ4AAkAACAIIGkO+K9vFiDCJ1gABIGQICE3AgbcrmF24GzwisO7gmsuo7unVjQABIAAEAQSNJYBgr/p9hBogAIQMAKGN7goze+nN+OrKgFB2eO1l5z+4WO0BAkAACAIIGksAwd4ECVuAABAGCAhttA488FpGs/RPIdQ9/p7DXdS88fQBQAAIAEEAQWMKIFgnP7R4AAgAIX1A+L399gQHP4EDswGdQphe6e/SvPLVjQABIAAEAQSNKYBg3UICQAAICQJCG3iwjsCB2bBOIRyKa25xH5Dw7vK/0+L9CQwAAkAACAIIGlMAwTqHhGlUAwSAkAAgtNH6mx/BgVlPgLDsGRCWxS22uF8GJBwuOH0AEAACQBBA0NgCCNbvjy0CBIBwA0BowIHZlTbfHXrCg6a49RYfZp+FhMX9CQsAAkAACAIIGlsAwa4CCevAgxYgAISeAaGJvI7R7Jqb72Y9AUI6/5YXD9OAhPq/gPAAEAACQFASAQQBBMtygQeTaBUQ0AAEgNAxIGwjH2Zm5zfEUwhtlN4JompfFov7ddTGnwECQAAISiKAIIBg2S8wYBbVAAEgvAEQ2mgTcFAWZvalDfEUwqZIfdV+FR0BAkAACAIIGlkAwW63QIEyWkcNQAAIFwLCMUrnaLOZ9XEKYTgwWO2nUR21AAEgAAQBBI0ggGBpLIBgGdUAASCcAYQ22gQcDOemwmxsm++mHeFBXQxx1X7ydCoBIAAEgCCAoIwDCJbWAgom0So6AoTRA8I2WhZmNozNd3UHgDD8LybVYxltogYgAAQJICizhv//tOW7T4843EVHgDAaQDihwSpK7wfUzOw5QCjfiAeHIrdVj9OAgTpqAcIoAKGN6mgZN3aHVG4wlXcAQQDB7LOY8NtddAQI2QHCNlpF0MBs6Jvv6ixe3djDAgiWT5gAELIChDaqo2XxrwEEAQRlGkCw4S3g4G9MAAjDBISvoYFZnpvvyqh9BR4cizHt+8dptIkagDBIQGjOoQFAEEDQCAIINuwFHkyi1Vd/sHcHN25bYRRGtQqyVAlTgkrgNoAX3GSTlUpgCeyAJbAEZe0EYAdRkAZYAlvIxUCCJ7EMz9jS+D3yHOBrQRAvqF+//jWmxYBQ7IAwpyG5aQBrlzcJ3jgeLFX988L9x4Sn1KXJgFD0gHDOYNCnw+4FA4IMCNpYBgTWJaPAIfVpMiD80AFhSacMCF3a7oMBbNUvv7evfBPhnA47nmUQ2Kc2DelsQPihA8KcxtSm/e4FA4JKyoAgAwLcd1BoroOCAeGhA8KSAeGUugwHHgaA688Zhi8MCXPqdrxpUDAgPHRAuA4Gx/TZ8G1AUKkZEGRAgMcPCl06pdmA8M0DwjmN6ZjxwGAAvGZMaC65ffL9g0KfprQYEL55QJgyFPRfesPAgKBaMiDIgADvKMPBPjWpzzhwSrMB4bPOGQ/G1GUw8KEBUJIPH59Sm/o0pcWA8J+WNKUhHdPN0duAoFozIMiAAAXIUNCkY+rTlOYNDAhTOmUw6FObvFkAUKMPH/epSV0arsPCygeE61Awpj416Wl3iwFBK8qAIAMCFCwDwiHDQZO61GcoOKUpzRUMCOc0pTHjQZ+OGQ+a5HVigK3IsJDSH/2l6dJSwYCQgeC5IfWpTUV+mTUgyICglVbkZy5ULeNBk9Lfbep/+tSYoWC60fyGAWH6+f/99lyf0j996jIcNJe8RQDAq2Uo2KfmUpv6T/05pulG8xsGhOlGp9S/6JixoLlU5T/5GBBkQNBKMyAAAIABQTVmQJABAQAAKmZAkAFBK82AAAAAdx4Q2jSmpZQHTa0zA4LeqXMakttpAADwwDHhkIZ0LuWhU+vJgKAHdkrHVOUtGgAAqFoe+J7SMZ1KeQBV3RkQdMfmNKR2BwAAlOXyU4chzaU8kKquDAj6zqbUJf/cBgAAtbj81KFzgFEGBD2wJY3p6J4BAACsQB4M9+noEKMMCLrXAURvGQAAwAY4xCgDghxABAAAHGKUAUEOIAIAAA4xyoAgBxABAICCOMS4vQwIm8oBRAAAwCFGGRDkACIAAPA1DjHKgCAHEAEAgNI4xLieDAiryAFEAACgDg4x1psBodocQAQAAOrmEGNdGRCqyQFEAABgvRxiLD8DQtGdU+8tAwAAYHMcYiwvA0JRLQ4gAgAAOMRYZAYEBxABAACq4hCjAWFDTanzlgEAAIBDjNVkQHjXA4itA4gAAAAOMVaZAcEBRP5l545OEIZiMIy6h8t0BKfx2Y06UldwBK+gIBUrWlqS3HMgS/yEDwAAKOnxnXARYjQgBDsBRAAAgKheQ4y+EwwIAogAAAAIMRoQopwAIgAAQCX37wQhRgOCACIAAAC/hhhPQowGBAFEAAAAhBgNCAKIAAAACDEaEAQQAQAACKK3EGNnA4IAIgAAAEKMBgQBRAAAABYJMRoQBBABAAAIqEqIscCAIIAIAABADplDjEkHBAFEAAAA8ssUYkw0IAggAgAAUFf0EGPgAUEAEQAAgD5FDDEGGxAEEAEAACBiiLENCAKIAAAAkMU8xFh4QHgGEIcDAAAAkCPEuNOAMAogAgAAQOIQ40YDwiSACAAAAB/lCzG2AUEAEQAAAKpbG2JsA8LqAKIvAwAAAEjknxBjGxAEEAEAAKBnbSAYvoUY24AggAgAAAC8hRjH2YAggAgAAAAshxiP5+skgAgAAAAAAAAAAAAAAAAAAAAAAAAAAAAAAAAAAAAAAAAAAAAAAAAAAAAAAAAAAAAAAAAAAAAAAAAAAAAAAAAAAAAAAAAAAAAAAAAAAAAAAAAAAAAAAAAAAAAAAAAAAAAAAAAAAAAAAAAAAAAAAAAAAAAAAAAAAAAAAAAAAAAAAAAAAAAAAAAAAAAAAAAAAAAAAAAAAAAAAAAAAAAAAAAAAAAAAAAAAAAAAAAAAAAAAAAAAAAAAAAAAAAAAAAAAAAAt/bgQAAAAABAkL/1IFcAAAAAAAAAbAV7Yegnczi31wAAAABJRU5ErkJggg==;" parent="1" vertex="1">
          <mxGeometry x="2175.25" y="784.99" width="107.02" height="53.51" as="geometry" />
        </mxCell>
        <mxCell id="Mp6pbIfyjrRbvAWgAkd_-172" value="Continuous integration Flow&amp;nbsp;&amp;nbsp;" style="html=1;shadow=0;dashed=0;align=center;verticalAlign=middle;shape=mxgraph.arrows2.stripedArrow;dy=0.6;dx=40;notch=25;" parent="1" vertex="1">
          <mxGeometry x="1165.25" y="401" width="980" height="70" as="geometry" />
        </mxCell>
        <mxCell id="XW8Wo0VvBGKjDge8wjB6-4" value="" style="shape=image;html=1;verticalAlign=top;verticalLabelPosition=bottom;labelBackgroundColor=#ffffff;imageAspect=0;aspect=fixed;image=https://cdn1.iconfinder.com/data/icons/bootstrap-vol-3/16/filetype-yml-128.png" parent="1" vertex="1">
          <mxGeometry x="224.75" y="179.5" width="22" height="22" as="geometry" />
        </mxCell>
        <mxCell id="XW8Wo0VvBGKjDge8wjB6-5" value="" style="shape=image;html=1;verticalAlign=top;verticalLabelPosition=bottom;labelBackgroundColor=#ffffff;imageAspect=0;aspect=fixed;image=https://cdn1.iconfinder.com/data/icons/bootstrap-vol-3/16/filetype-yml-128.png" parent="1" vertex="1">
          <mxGeometry x="793.82" y="180.26" width="22" height="22" as="geometry" />
        </mxCell>
        <mxCell id="Tl-oxK__cK4v4PlNAEE8-5" style="edgeStyle=orthogonalEdgeStyle;rounded=0;orthogonalLoop=1;jettySize=auto;html=1;" edge="1" parent="1" source="Tl-oxK__cK4v4PlNAEE8-1" target="Mp6pbIfyjrRbvAWgAkd_-76">
          <mxGeometry relative="1" as="geometry" />
        </mxCell>
        <mxCell id="Tl-oxK__cK4v4PlNAEE8-1" value="Merge" style="shape=image;html=1;verticalAlign=top;verticalLabelPosition=bottom;labelBackgroundColor=#ffffff;imageAspect=0;aspect=fixed;image=https://cdn0.iconfinder.com/data/icons/google-material-design-3-0/48/ic_call_merge_48px-128.png" vertex="1" parent="1">
          <mxGeometry x="665.75" y="173.5" width="79" height="79" as="geometry" />
        </mxCell>
        <mxCell id="Tl-oxK__cK4v4PlNAEE8-23" value="" style="shape=image;html=1;verticalAlign=top;verticalLabelPosition=bottom;labelBackgroundColor=#ffffff;imageAspect=0;aspect=fixed;image=https://cdn1.iconfinder.com/data/icons/seo-and-web-development-6/32/development_laptop_setting_gear_cogwheel-128.png" vertex="1" parent="1">
          <mxGeometry x="1835.25" y="130" width="40" height="40" as="geometry" />
        </mxCell>
        <mxCell id="Tl-oxK__cK4v4PlNAEE8-25" value="" style="sketch=0;pointerEvents=1;shadow=0;dashed=0;html=1;strokeColor=none;labelPosition=center;verticalLabelPosition=bottom;verticalAlign=top;align=center;fillColor=#505050;shape=mxgraph.mscae.intune.intune_connector" vertex="1" parent="1">
          <mxGeometry x="1837.25" y="251.5" width="48" height="37.5" as="geometry" />
        </mxCell>
        <mxCell id="Tl-oxK__cK4v4PlNAEE8-27" value="" style="shape=image;html=1;verticalAlign=top;verticalLabelPosition=bottom;labelBackgroundColor=#ffffff;imageAspect=0;aspect=fixed;image=https://cdn1.iconfinder.com/data/icons/bootstrap-vol-3/16/filetype-yml-128.png" vertex="1" parent="1">
          <mxGeometry x="2136.25" y="127" width="39" height="39" as="geometry" />
        </mxCell>
        <mxCell id="Tl-oxK__cK4v4PlNAEE8-29" value="Bundle Template Handler" style="rounded=1;whiteSpace=wrap;html=1;" vertex="1" parent="1">
          <mxGeometry x="1685.25" y="303" width="110" height="34.5" as="geometry" />
        </mxCell>
        <mxCell id="Tl-oxK__cK4v4PlNAEE8-30" style="edgeStyle=orthogonalEdgeStyle;rounded=0;orthogonalLoop=1;jettySize=auto;html=1;entryX=0.002;entryY=0.46;entryDx=0;entryDy=0;entryPerimeter=0;" edge="1" parent="1" source="Mp6pbIfyjrRbvAWgAkd_-18" target="Tl-oxK__cK4v4PlNAEE8-28">
          <mxGeometry relative="1" as="geometry" />
        </mxCell>
        <mxCell id="Tl-oxK__cK4v4PlNAEE8-31" value="Trigger" style="edgeLabel;html=1;align=center;verticalAlign=middle;resizable=0;points=[];" vertex="1" connectable="0" parent="Tl-oxK__cK4v4PlNAEE8-30">
          <mxGeometry x="-0.2255" y="1" relative="1" as="geometry">
            <mxPoint as="offset" />
          </mxGeometry>
        </mxCell>
      </root>
    </mxGraphModel>
  </diagram>
</mxfile>
